<?xml version="1.0" standalone="no"?>
<!DOCTYPE svg PUBLIC "-//W3C//DTD SVG 20010904//EN"
 "http://www.w3.org/TR/2001/REC-SVG-20010904/DTD/svg10.dtd">
<svg version="1.0" xmlns="http://www.w3.org/2000/svg"
 width="3099.000000pt" height="3419.000000pt" viewBox="0 0 3099.000000 3419.000000"
 preserveAspectRatio="xMidYMid meet">
<metadata>
Created by potrace 1.16, written by Peter Selinger 2001-2019
</metadata>
<g transform="translate(0.000000,3419.000000) scale(0.100000,-0.100000)"
fill="#000000" stroke="none">
<path d="M14915 32627 c-11 -6 -31 -23 -45 -39 -28 -32 -40 -35 -40 -12 0 23
-24 11 -28 -13 -2 -12 -12 -29 -23 -39 -10 -9 -19 -25 -19 -35 0 -17 -53 -69
-71 -69 -5 0 -9 15 -9 33 l0 32 -18 -25 c-29 -44 -150 -150 -164 -145 -8 3
-27 -8 -43 -25 -16 -16 -35 -30 -42 -30 -7 0 -28 -17 -47 -37 -33 -36 -35 -37
-49 -19 -14 19 -14 19 -40 0 -16 -11 -24 -25 -21 -35 5 -19 -11 -35 -49 -44
-21 -6 -27 -4 -27 9 0 9 5 16 10 16 6 0 10 5 10 11 0 19 -45 4 -55 -18 -5 -12
-22 -27 -37 -34 -14 -6 -29 -17 -32 -25 -7 -17 -38 -18 -54 -2 -9 9 -15 9 -20
3 -10 -15 -59 -35 -85 -35 -12 0 -35 -9 -52 -20 -16 -11 -37 -20 -45 -20 -8 0
-28 -7 -44 -15 -15 -8 -32 -12 -38 -9 -14 9 16 38 65 63 24 12 56 33 72 47 15
13 32 24 37 24 4 0 26 18 48 39 34 32 37 38 18 34 -13 -3 -45 -22 -73 -43 -27
-20 -68 -45 -90 -55 -22 -10 -51 -26 -64 -36 -23 -19 -61 -26 -61 -12 0 4 12
20 27 35 26 27 26 28 6 28 -13 0 -31 -13 -43 -30 -12 -16 -27 -30 -34 -30 -6
0 -31 -19 -53 -42 -23 -24 -60 -53 -83 -66 l-42 -24 3 24 c4 25 -7 48 -21 48
-11 0 -44 -64 -54 -102 -11 -46 -160 -185 -238 -221 -56 -26 -68 -36 -69 -57
-1 -18 -3 -20 -6 -7 -3 11 -10 16 -20 13 -8 -3 -30 -6 -48 -6 -28 0 -45 -12
-110 -75 -48 -47 -85 -75 -98 -75 -12 0 -40 -10 -62 -21 -30 -16 -43 -19 -56
-11 -20 13 -77 -10 -86 -35 -7 -19 -122 -93 -145 -93 -24 0 -23 22 2 38 11 7
20 19 20 28 0 12 -9 8 -35 -15 -20 -17 -53 -40 -75 -51 -22 -11 -72 -50 -112
-86 -40 -36 -86 -68 -102 -71 -15 -3 -35 -18 -45 -32 -17 -28 -66 -81 -221
-241 -103 -106 -181 -199 -241 -289 -21 -31 -55 -74 -75 -96 -37 -42 -81 -106
-179 -265 -62 -101 -75 -115 -86 -98 -11 17 -25 2 -49 -49 -27 -59 -48 -83
-70 -83 -19 0 -56 -51 -87 -120 -19 -43 -106 -136 -230 -246 -38 -33 -56 -59
-69 -96 -9 -27 -14 -51 -12 -53 8 -8 80 58 89 82 9 23 35 41 45 30 11 -11 -21
-54 -94 -126 -47 -47 -72 -65 -67 -51 11 35 -10 16 -55 -50 -22 -32 -40 -61
-40 -63 0 -15 -103 -184 -149 -245 -31 -41 -75 -98 -98 -129 -23 -30 -76 -90
-118 -133 -41 -43 -84 -98 -95 -122 -22 -50 -47 -77 -80 -83 -27 -5 -50 -23
-50 -40 0 -12 -144 -165 -205 -217 -38 -33 -108 -116 -124 -148 -8 -14 -29
-48 -47 -75 -19 -28 -36 -60 -38 -72 -5 -23 -54 -104 -71 -115 -33 -22 -45
-36 -51 -60 -8 -38 14 -37 50 1 28 29 72 45 82 30 3 -5 0 -18 -6 -30 -15 -27
-5 -36 17 -17 28 23 51 28 57 12 8 -22 -1 -37 -35 -57 -33 -18 -49 -15 -49 10
0 11 -6 10 -24 -8 -13 -13 -39 -29 -58 -35 -19 -8 -25 -13 -14 -13 12 -1 16
-6 12 -16 -5 -13 0 -15 28 -9 29 5 35 3 41 -15 9 -28 34 -26 79 4 41 28 56 31
56 13 0 -22 -24 -82 -47 -119 -13 -20 -26 -52 -29 -70 -6 -33 -5 -32 40 26 25
33 56 71 69 85 l22 25 3 -27 c3 -25 8 -28 38 -28 19 0 33 -4 30 -9 -10 -16 14
-65 46 -91 36 -30 34 -35 -26 -100 -29 -32 -41 -39 -47 -28 -7 10 -13 8 -31
-9 -26 -26 -16 -43 13 -24 39 24 32 1 -13 -43 -25 -24 -50 -45 -57 -47 -6 -2
-14 -29 -18 -59 -4 -36 -13 -61 -28 -74 -12 -12 -45 -56 -74 -98 -43 -64 -50
-80 -42 -97 14 -25 14 -24 -9 -51 l-20 -23 0 29 c-1 28 -1 28 -15 10 -11 -15
-12 -22 -3 -27 26 -16 -56 -189 -90 -189 -39 0 -92 -117 -71 -157 17 -32 -14
-187 -45 -228 -29 -38 -39 -68 -42 -125 -2 -57 -17 -129 -31 -155 -6 -11 -9
-31 -6 -45 2 -14 -8 -72 -22 -130 -41 -158 -42 -170 -55 -375 -6 -104 -18
-221 -26 -260 -9 -38 -15 -101 -15 -140 9 -728 3 -976 -31 -1132 -10 -46 -9
-55 11 -86 12 -20 21 -51 21 -74 0 -23 7 -58 16 -79 18 -42 22 -157 9 -250 -5
-36 -3 -59 6 -75 22 -39 34 -197 40 -509 4 -161 -2 -282 -17 -352 -16 -81 -19
-200 -11 -448 4 -134 11 -177 34 -215 15 -25 22 -18 31 34 9 54 25 54 34 0 4
-24 12 -45 18 -49 26 -16 28 -178 6 -470 -13 -169 -23 -246 -42 -310 -13 -46
-29 -125 -34 -175 -15 -131 -31 -227 -41 -253 -5 -13 -9 -32 -9 -42 0 -17 -45
-133 -71 -182 -5 -10 -9 -31 -9 -48 0 -20 -5 -30 -15 -30 -8 0 -15 -4 -15 -10
0 -5 6 -10 14 -10 20 0 10 -67 -26 -165 -16 -44 -34 -114 -39 -155 -6 -41 -13
-92 -16 -114 -4 -26 -1 -41 8 -47 11 -6 11 -14 2 -38 -7 -19 -8 -44 -3 -65 4
-19 6 -37 3 -39 -7 -8 17 -328 29 -389 15 -71 -1 -133 -38 -150 -33 -15 -33
-51 0 -42 19 4 28 -1 46 -25 12 -17 25 -29 30 -26 26 16 53 -27 31 -50 -5 -6
-19 -50 -31 -100 -12 -49 -33 -110 -45 -135 -13 -25 -29 -62 -35 -82 -6 -21
-15 -38 -20 -38 -9 0 -6 -33 6 -51 3 -6 17 -9 31 -6 19 3 27 -1 34 -21 5 -14
12 -151 14 -304 l4 -279 -32 -36 c-29 -33 -32 -42 -31 -96 1 -43 6 -64 18 -72
18 -13 22 -55 5 -55 -5 0 -8 4 -5 9 3 5 -1 14 -9 21 -12 10 -16 9 -21 -3 -3
-9 -3 -20 0 -25 3 -5 -1 -18 -9 -28 -8 -10 -15 -32 -15 -49 0 -16 -8 -43 -17
-60 -54 -99 -53 -96 -38 -124 9 -18 10 -32 4 -42 -17 -26 -10 -40 19 -37 25 3
28 0 36 -46 8 -41 7 -50 -7 -58 -26 -14 -20 -28 11 -28 55 0 87 -59 96 -178 4
-41 11 -82 16 -92 13 -24 13 -66 0 -91 -9 -16 -7 -19 12 -19 13 0 31 -12 42
-26 28 -39 20 -187 -13 -232 -13 -18 -27 -60 -33 -98 -10 -57 -9 -68 4 -78 9
-6 18 -35 22 -66 7 -58 9 -63 30 -66 16 -2 29 36 21 58 -7 18 11 68 24 68 15
0 34 -79 32 -127 -1 -23 3 -52 10 -65 7 -13 12 -38 10 -57 -1 -18 3 -39 10
-47 14 -17 4 -77 -16 -94 -8 -7 -15 -18 -15 -24 0 -6 -7 -24 -15 -40 -19 -36
-13 -45 9 -14 9 13 30 42 47 66 25 36 33 41 45 32 8 -7 14 -30 14 -51 0 -21 5
-41 10 -44 12 -8 13 -82 1 -89 -18 -11 -18 -63 0 -74 18 -12 17 -58 -2 -94
-15 -27 -11 -45 16 -74 27 -29 75 -127 75 -153 0 -9 9 -40 20 -69 11 -28 17
-52 14 -52 -4 0 -2 -6 4 -13 8 -10 6 -16 -9 -25 -23 -15 -28 -92 -5 -92 7 0
16 9 19 20 3 11 13 20 22 20 15 0 17 -7 11 -58 -8 -68 -1 -92 25 -92 16 0 19
-8 19 -46 0 -32 -4 -44 -12 -41 -8 2 -12 17 -10 35 2 23 -2 34 -18 42 -17 9
-22 7 -30 -15 -14 -36 -13 -57 5 -81 8 -12 19 -41 25 -65 31 -123 32 -131 21
-156 -17 -37 -11 -123 9 -123 8 0 23 38 21 53 -3 17 32 5 54 -20 30 -34 32
-63 6 -63 -42 0 -35 -55 7 -63 22 -5 27 -12 29 -38 3 -40 20 -60 33 -39 5 8
10 23 10 33 0 10 7 20 15 23 29 11 41 -13 39 -73 -1 -32 -3 -59 -4 -60 -1 -2
-2 -12 -2 -23 0 -59 3 -80 16 -92 7 -8 25 -35 39 -61 14 -27 27 -43 29 -36 7
20 46 0 52 -26 6 -23 27 -32 60 -26 49 9 152 -82 143 -127 -3 -14 1 -42 8 -61
6 -20 15 -53 19 -73 l7 -38 -41 0 c-43 0 -53 -17 -25 -40 12 -10 16 -9 20 2 5
12 12 10 34 -11 36 -34 42 -53 25 -76 -23 -31 -18 -114 11 -160 13 -22 25 -45
25 -52 1 -37 183 -265 233 -292 39 -21 57 -62 57 -130 0 -46 4 -63 15 -68 26
-9 42 -55 39 -113 -2 -30 -3 -63 -4 -72 0 -12 -8 -18 -24 -18 -13 0 -29 -7
-36 -15 -7 -8 -18 -15 -24 -15 -6 0 -28 -15 -48 -34 -21 -19 -47 -38 -59 -41
-18 -6 -133 -87 -149 -105 -3 -3 -19 -15 -36 -25 -29 -18 -160 -133 -205 -179
-11 -11 -19 -25 -19 -32 0 -6 -16 -24 -35 -38 -19 -15 -35 -35 -35 -45 0 -10
-9 -30 -20 -44 -11 -14 -20 -32 -20 -40 0 -9 -4 -17 -9 -19 -5 -2 -11 -17 -13
-34 -2 -17 -11 -39 -21 -48 -9 -10 -14 -22 -11 -28 4 -6 1 -14 -5 -18 -7 -4
-13 -17 -14 -28 -1 -12 -5 -22 -9 -22 -4 0 -8 -9 -8 -20 0 -19 1 -19 25 2 16
14 23 28 19 40 -3 11 0 18 8 18 12 0 75 76 87 105 2 5 17 23 33 40 l28 30 0
-25 c0 -14 -12 -45 -26 -70 -15 -25 -36 -61 -47 -80 -45 -77 -94 -179 -126
-260 -19 -47 -37 -94 -42 -105 -4 -11 -10 -41 -14 -67 -3 -26 -10 -50 -15 -53
-4 -3 -6 -14 -3 -24 3 -10 -1 -29 -7 -41 -10 -20 -10 -22 3 -17 10 4 13 0 10
-12 -6 -24 27 -38 39 -16 12 20 32 20 24 0 -3 -9 0 -18 8 -21 7 -3 13 -10 14
-17 3 -35 8 -53 15 -58 18 -13 24 -113 9 -137 -18 -28 -7 -42 13 -16 14 18 14
18 15 -4 0 -13 -5 -33 -11 -45 -9 -16 -9 -22 0 -25 6 -2 11 -12 11 -23 0 -11
7 -19 18 -20 9 0 12 -3 6 -5 -7 -3 -10 -13 -7 -24 4 -16 9 -17 30 -9 14 5 28
8 30 5 2 -2 6 -34 9 -70 3 -43 11 -74 22 -87 9 -11 18 -32 18 -47 2 -28 16
-101 32 -164 5 -20 19 -53 31 -72 18 -29 20 -39 11 -57 -8 -14 -9 -24 -2 -28
13 -8 35 -117 27 -140 -3 -10 1 -23 8 -29 8 -7 13 -27 11 -49 -1 -21 5 -56 13
-78 48 -126 55 -152 48 -189 -5 -22 -2 -42 8 -57 8 -13 15 -45 16 -71 1 -26 6
-60 13 -75 6 -15 15 -55 20 -88 9 -65 11 -77 28 -175 33 -187 40 -232 49 -310
6 -47 12 -146 15 -220 4 -110 10 -150 31 -215 14 -44 30 -114 36 -155 6 -41
17 -104 25 -140 74 -322 76 -394 13 -582 -46 -135 -223 -501 -296 -613 -90
-136 -111 -171 -138 -224 -15 -29 -50 -82 -78 -116 -29 -35 -68 -84 -87 -110
-19 -26 -50 -65 -67 -87 -18 -22 -33 -46 -33 -53 0 -7 -3 -27 -6 -44 -6 -29
-4 -31 20 -31 54 0 108 42 184 142 24 31 85 99 135 152 51 52 124 129 162 169
39 40 84 98 99 128 16 30 41 72 56 94 69 102 101 175 126 286 28 125 31 132
45 123 17 -10 127 -257 169 -379 17 -49 40 -108 50 -130 27 -58 56 -136 64
-167 3 -15 24 -65 45 -110 22 -46 46 -106 54 -134 8 -28 27 -76 41 -106 14
-30 26 -61 26 -69 0 -8 7 -27 15 -43 8 -15 22 -54 30 -84 10 -38 23 -63 40
-75 14 -10 22 -23 19 -28 -3 -6 -1 -16 6 -23 12 -16 18 -40 26 -110 3 -27 10
-61 16 -75 15 -41 59 -101 74 -101 16 0 17 -9 4 -30 -6 -9 -5 -17 2 -21 6 -4
12 -24 14 -45 6 -54 11 -64 31 -64 40 0 66 -24 68 -63 2 -35 25 -80 25 -49 0
7 7 12 16 12 12 0 15 -6 10 -25 -4 -15 -2 -25 4 -25 6 0 9 -3 7 -7 -8 -13 12
-55 22 -48 6 3 7 13 4 22 -4 9 1 21 11 29 10 6 17 16 17 21 -1 4 19 8 44 8 29
0 45 -4 45 -12 0 -7 -4 -13 -10 -13 -5 0 -10 -10 -10 -21 0 -18 5 -20 27 -16
27 5 53 -11 53 -33 0 -6 10 -11 23 -10 46 4 59 0 53 -15 -4 -10 1 -15 14 -15
18 0 25 -10 21 -32 0 -4 6 -5 14 -2 8 4 15 1 15 -5 0 -6 9 -11 21 -11 18 0 19
-2 5 -15 -8 -8 -19 -15 -25 -15 -6 0 -11 -4 -11 -10 0 -5 -11 -10 -24 -10 -13
0 -26 -6 -29 -14 -3 -8 -15 -16 -27 -18 -31 -5 -29 -23 2 -26 22 -3 30 -10 36
-35 7 -25 5 -33 -6 -35 -8 -2 -19 1 -25 7 -14 14 -57 14 -57 1 0 -5 5 -10 10
-10 6 0 10 -9 10 -20 0 -12 7 -20 17 -20 9 0 13 -3 10 -7 -4 -3 5 -12 20 -20
21 -11 28 -11 34 -1 4 7 11 9 15 6 3 -4 19 -1 35 7 35 19 39 19 39 -1 0 -9 8
-23 18 -31 15 -13 14 -14 -11 -10 -23 4 -31 0 -39 -19 -6 -13 -16 -24 -22 -24
-6 0 -4 -5 4 -10 10 -6 11 -10 3 -10 -7 0 -13 -10 -13 -21 0 -21 17 -23 69 -8
7 2 16 -2 18 -8 3 -7 -2 -13 -10 -13 -12 0 -14 -9 -11 -36 4 -33 3 -35 -18
-28 -13 3 -25 11 -26 16 -2 4 -10 15 -19 23 -9 10 -10 15 -2 15 9 0 8 4 -1 15
-18 22 -30 18 -30 -9 0 -17 -9 -28 -30 -38 -17 -7 -30 -15 -31 -18 0 -3 -2
-15 -5 -26 -2 -14 6 -32 24 -50 15 -15 21 -24 15 -20 -8 4 -13 1 -13 -8 0 -9
5 -16 10 -16 6 0 10 -7 10 -16 0 -9 9 -25 21 -35 14 -12 19 -24 14 -38 -6 -18
19 -114 36 -136 4 -5 17 -39 29 -75 12 -36 32 -94 45 -130 12 -36 32 -85 44
-109 11 -25 21 -50 21 -55 0 -6 18 -51 41 -101 22 -49 44 -106 49 -125 13 -48
141 -420 173 -500 14 -36 33 -92 42 -125 10 -33 20 -63 24 -68 4 -4 26 40 49
97 38 96 110 214 226 372 54 73 197 248 220 269 12 11 36 40 53 65 17 25 48
61 68 80 20 19 45 51 55 70 10 19 89 105 176 190 87 85 181 178 209 205 99 97
191 180 235 214 25 19 82 70 127 115 102 102 170 162 214 189 19 12 40 27 47
34 8 7 30 25 50 40 21 15 56 44 79 65 23 21 73 58 110 83 37 24 91 63 118 85
28 22 87 65 132 96 45 30 85 59 88 63 3 5 30 23 60 40 30 17 55 35 55 39 0 5
24 23 53 42 28 18 63 40 77 50 14 10 59 35 100 56 41 21 84 45 95 55 11 9 66
41 123 70 56 29 132 77 169 108 37 30 90 69 118 86 27 16 61 38 75 48 40 28
180 117 185 117 3 0 28 15 57 34 29 18 85 50 125 70 58 29 81 47 114 93 24 31
79 93 123 138 79 78 119 131 184 245 17 30 44 69 59 86 16 17 38 44 50 60 12
16 37 49 57 74 19 25 54 72 77 105 23 33 66 92 94 130 29 39 64 88 78 110 15
22 71 105 126 185 55 80 131 190 168 245 37 55 81 118 98 140 16 23 68 94 115
158 47 65 132 180 190 255 123 161 167 220 233 316 97 143 209 303 258 371 79
111 122 174 144 210 12 19 30 44 40 56 18 21 18 21 -10 -1 -68 -56 -79 -68
-123 -125 -91 -118 -293 -357 -344 -406 -16 -15 -28 -30 -28 -33 0 -4 -18 -23
-41 -44 -73 -67 -169 -163 -169 -169 0 -3 -18 -23 -40 -44 -22 -22 -40 -43
-40 -47 0 -4 -14 -16 -30 -26 -17 -9 -38 -29 -47 -43 -28 -42 -75 -88 -123
-119 -24 -16 -52 -36 -61 -44 -9 -8 -32 -30 -52 -48 -19 -17 -46 -32 -60 -32
-26 0 -62 -32 -50 -45 5 -4 3 -5 -4 -1 -7 4 -29 -11 -52 -35 -31 -33 -45 -41
-65 -37 -18 4 -26 1 -26 -8 0 -8 -7 -14 -15 -14 -8 0 -30 -9 -50 -20 -20 -11
-43 -20 -51 -20 -9 0 -25 -11 -35 -24 -16 -20 -26 -24 -53 -19 -22 3 -46 -1
-67 -11 -17 -9 -39 -16 -48 -17 -9 -1 -5 -5 9 -9 14 -4 18 -9 10 -9 -12 -1
-12 -3 -2 -10 8 -5 0 -7 -23 -6 -20 1 -39 5 -42 9 -3 3 -14 6 -24 6 -30 0 -15
-34 17 -40 16 -3 28 -10 27 -15 -2 -13 -73 -58 -73 -46 0 14 -32 23 -44 11 -7
-7 -4 -15 10 -25 16 -12 16 -14 3 -15 -9 0 -22 -7 -29 -15 -11 -14 -15 -12
-28 16 -14 27 -19 30 -45 25 -39 -8 -43 -12 -27 -31 10 -12 10 -15 -4 -15 -9
0 -16 5 -16 10 0 6 -7 10 -16 10 -8 0 -12 5 -9 10 11 17 -14 11 -50 -13 -24
-15 -34 -28 -31 -39 5 -21 -7 -23 -34 -5 -14 8 -23 9 -28 1 -4 -5 -23 -10 -42
-10 -37 1 -47 18 -49 82 -1 35 -15 45 -46 34 -36 -13 -51 -39 -36 -62 16 -26
9 -33 -17 -17 -17 10 -23 10 -36 0 -9 -8 -16 -9 -16 -4 0 5 -16 7 -36 5 -33
-4 -36 -3 -29 17 3 12 2 21 -4 21 -5 0 4 13 20 29 36 37 40 76 7 67 -13 -3
-27 -6 -33 -6 -5 0 -3 -4 5 -10 12 -7 10 -13 -11 -32 -14 -13 -34 -22 -44 -21
-13 2 -15 1 -5 -3 32 -13 40 -34 19 -55 -21 -21 -36 -23 -57 -10 -11 6 -10 15
4 44 10 21 24 37 31 37 7 0 13 5 13 10 0 6 -13 10 -30 10 -24 0 -30 4 -30 23
l0 22 -13 -24 c-19 -37 -46 -50 -58 -28 -12 21 -29 22 -29 3 0 -19 -40 -32
-50 -16 -4 7 -16 9 -29 5 -15 -4 -23 -1 -28 11 -4 10 -2 19 5 22 20 6 13 25
-8 19 -19 -5 -19 -4 -4 25 12 23 13 33 3 44 -9 11 -5 17 22 29 19 8 30 14 26
15 -4 0 -3 9 3 21 15 27 21 89 9 89 -5 0 -9 -15 -10 -32 0 -28 -2 -30 -9 -13
-8 17 -9 16 -9 -9 -1 -23 -5 -27 -21 -23 -12 3 -20 0 -20 -8 0 -7 -13 -15 -30
-19 -18 -3 -30 -12 -30 -21 0 -21 -35 -15 -36 5 -2 34 -4 40 -14 40 -5 0 -10
-7 -10 -15 0 -11 -8 -13 -30 -9 -32 7 -43 -11 -12 -19 9 -3 0 -5 -20 -6 -21 0
-38 4 -38 10 0 5 5 7 10 4 6 -3 10 -2 10 3 0 6 -10 12 -22 16 -13 3 -38 19
-56 36 -27 24 -31 34 -22 44 14 17 -1 28 -20 15 -30 -18 -40 -10 -23 19 13 22
23 27 54 27 44 1 54 8 45 31 -5 13 -9 14 -21 4 -9 -7 -22 -9 -32 -5 -10 4 -30
7 -45 6 -20 -2 -28 2 -28 14 0 9 -4 14 -9 10 -6 -3 -14 2 -19 11 -8 15 -10 15
-15 0 -4 -9 -2 -16 3 -16 14 0 1 -28 -17 -34 -12 -5 -14 -1 -10 14 3 11 1 20
-3 20 -4 0 -6 9 -3 20 5 17 0 20 -26 20 l-32 0 26 27 c33 37 32 43 -10 36 -23
-4 -35 -2 -35 6 0 6 -8 11 -17 11 -14 0 -12 5 11 25 34 30 30 61 -8 51 -16 -4
-26 -1 -30 9 -5 15 -37 22 -35 8 4 -23 -4 -34 -32 -49 -25 -12 -37 -14 -56 -5
-30 14 -43 14 -23 1 13 -9 13 -10 0 -10 -9 0 -24 6 -35 13 -28 18 -75 20 -75
3 0 -7 -12 -16 -27 -19 -35 -7 -38 -4 -18 17 18 18 17 67 -2 74 -7 2 -13 -3
-13 -11 0 -8 -12 -18 -26 -21 -31 -8 -45 1 -24 14 13 9 13 10 0 10 -12 0 -13
2 -1 9 7 5 11 13 7 19 -5 9 64 62 83 62 5 0 7 -9 4 -21 -4 -15 0 -22 16 -26
11 -3 18 -9 15 -14 -3 -5 2 -9 10 -9 9 0 13 6 10 14 -6 15 40 56 62 56 7 0 17
-6 21 -14 10 -17 37 -25 38 -11 1 6 5 21 9 34 9 27 -12 49 -27 28 -7 -9 -10
-9 -14 1 -7 17 -36 16 -30 -2 4 -9 -3 -16 -17 -18 -19 -4 -22 -1 -19 13 3 10
14 21 25 25 14 4 17 9 10 16 -7 7 -21 4 -45 -11 -19 -11 -38 -21 -43 -21 -5 0
-3 4 4 9 7 4 14 17 15 29 0 11 9 23 19 25 22 6 23 30 3 47 -19 16 -19 30 -1
30 10 0 14 9 12 28 -2 15 -4 33 -5 40 0 6 -13 12 -27 12 -16 0 -23 4 -18 11 4
7 21 9 41 6 29 -5 36 -3 40 13 3 11 12 20 20 20 8 0 12 4 9 9 -4 5 6 13 21 18
l28 10 -30 16 -30 16 40 2 c62 2 90 12 90 34 0 11 7 20 15 20 8 0 14 -6 13
-12 -5 -21 15 -15 22 7 3 10 19 30 35 44 19 16 25 26 17 29 -6 3 1 6 16 6 19
1 26 5 21 13 -5 8 -2 9 10 5 10 -4 24 -7 31 -7 8 0 11 -7 8 -20 -5 -20 12 -50
28 -50 5 0 9 8 9 17 0 13 3 14 12 5 17 -17 74 -16 60 1 -5 6 -13 29 -16 50 -5
30 -3 37 10 37 13 0 14 3 5 14 -9 11 -9 16 0 22 6 4 16 0 21 -10 5 -9 15 -16
23 -16 7 0 20 -6 28 -14 12 -12 46 -21 70 -17 4 1 -11 17 -33 37 -44 40 -47
49 -25 74 13 15 13 21 -4 56 -25 52 -15 72 35 66 25 -3 35 -1 30 7 -4 6 -2 11
4 11 6 0 14 8 17 18 12 31 50 70 62 63 17 -11 47 -74 43 -92 -2 -10 -13 -20
-25 -24 -21 -7 -21 -8 6 -12 15 -2 27 -11 27 -18 0 -18 26 -9 34 10 3 8 -2 21
-10 29 -14 15 -19 38 -15 79 1 21 21 23 21 2 0 -8 5 -16 10 -16 30 -5 35 -2
37 26 1 33 18 104 26 112 6 5 39 -53 43 -74 1 -7 -4 -17 -12 -24 -8 -6 -14
-18 -14 -25 0 -8 -6 -14 -13 -14 -16 0 -39 -38 -31 -51 8 -13 67 -3 106 17 41
21 48 18 110 -41 31 -30 60 -55 63 -55 12 0 3 21 -20 44 -14 14 -25 29 -25 34
0 5 -7 15 -15 22 -24 20 -17 45 18 64 102 55 143 74 149 70 5 -3 8 -17 8 -30
0 -16 5 -24 12 -22 7 3 13 18 13 34 0 18 12 45 33 69 19 24 32 33 32 24 0 -9
9 -24 19 -33 16 -14 19 -27 15 -67 l-4 -49 34 0 c39 0 57 29 35 56 -18 22 -22
40 -23 111 -1 36 3 63 9 62 6 0 9 -7 7 -15 -2 -8 2 -14 8 -14 5 0 10 5 10 10
0 6 8 10 18 10 12 0 23 13 32 38 13 38 35 61 58 62 6 0 12 -7 12 -15 0 -8 4
-15 10 -15 5 0 9 -3 9 -7 -3 -21 2 -33 16 -33 12 0 12 5 -4 31 -18 30 -18 31
0 69 11 22 19 43 19 47 0 5 16 17 35 27 28 15 37 17 50 6 15 -13 16 -12 27 27
2 6 30 40 63 74 80 84 182 124 215 84 22 -26 37 -16 49 31 6 25 22 54 34 66
46 42 159 118 175 118 9 0 24 5 32 10 12 8 12 12 2 18 -17 12 -1 55 30 76 33
23 84 21 91 -4 5 -20 37 -29 37 -10 0 17 52 62 94 80 23 9 55 28 71 42 48 39
83 58 105 58 11 0 20 4 20 8 0 5 27 38 60 73 33 35 63 75 66 89 3 14 18 43 34
65 16 22 41 61 56 87 19 33 37 51 59 58 24 8 40 25 66 73 19 34 44 66 56 72
12 5 27 20 34 32 7 13 28 27 48 33 20 5 52 26 71 46 19 20 68 51 108 70 45 21
72 39 72 49 0 8 10 19 23 24 12 5 29 21 36 35 13 23 29 32 55 27 16 -3 66 21
66 32 0 5 8 17 19 26 10 9 26 31 35 49 9 17 21 32 26 32 17 0 11 -32 -8 -49
-21 -18 -42 -54 -42 -70 0 -25 31 -8 48 25 10 19 29 41 42 47 14 7 30 23 37
37 22 44 95 68 134 44 6 -3 15 0 19 7 39 64 79 110 107 119 48 17 83 48 83 75
0 13 4 26 9 29 5 3 12 22 16 42 6 36 7 36 46 30 21 -3 39 -2 39 2 0 5 13 29
30 53 16 24 30 56 30 71 0 28 25 49 47 41 6 -2 14 12 18 37 4 22 13 47 21 54
8 8 14 20 14 26 0 24 43 88 65 98 19 9 27 7 41 -9 18 -20 18 -19 41 7 29 35
29 44 -2 44 -33 0 -39 17 -28 82 6 41 13 55 32 64 13 7 27 18 32 26 5 7 23 13
41 13 29 0 33 4 36 28 2 15 9 27 15 27 23 1 68 50 67 73 -5 53 -1 65 20 60 15
-4 23 3 36 36 9 23 24 46 34 51 19 10 50 89 50 127 0 30 17 62 44 84 l21 17
-25 21 c-33 27 -35 26 -49 -7 -16 -37 -96 -122 -115 -122 -15 0 -38 -60 -27
-70 4 -3 12 -18 19 -34 12 -26 11 -35 -5 -68 -14 -30 -24 -38 -46 -38 -20 0
-30 -7 -39 -27 -7 -16 -19 -39 -28 -53 l-15 -24 -6 34 c-6 38 21 127 52 172
24 33 24 38 0 38 -19 0 -61 -48 -61 -69 0 -8 -6 -9 -18 -2 -14 8 -26 2 -54
-25 -20 -19 -40 -34 -44 -34 -4 0 -23 -17 -43 -37 -20 -21 -53 -51 -73 -68
-21 -16 -42 -42 -47 -57 -6 -16 -16 -28 -24 -28 -8 0 -43 -27 -78 -60 -34 -33
-64 -60 -67 -60 -9 0 -82 -59 -128 -105 -63 -63 -170 -158 -251 -224 -34 -28
-64 -55 -68 -61 -3 -5 -16 -10 -28 -10 -15 0 -36 -18 -65 -55 -24 -30 -47 -55
-52 -55 -5 0 -24 -13 -42 -30 -18 -16 -40 -30 -49 -30 -10 0 -33 -18 -52 -40
-33 -38 -57 -51 -57 -30 0 16 -22 12 -35 -7 -11 -15 -17 -15 -51 -4 -22 7 -46
11 -54 9 -16 -3 -17 22 -5 93 5 26 2 39 -9 48 -9 8 -16 24 -16 37 0 12 -9 39
-21 58 -12 20 -18 36 -15 36 3 0 1 12 -5 28 -6 15 -12 48 -14 75 -2 26 -10 58
-19 72 -9 13 -16 31 -16 38 0 8 -7 20 -15 27 -8 7 -15 26 -15 43 0 17 -8 35
-17 43 -15 10 -16 15 -5 25 18 20 15 36 -15 64 -28 26 -53 33 -53 15 0 -5 -6
-10 -14 -10 -9 0 -16 12 -18 33 -2 22 -10 35 -25 42 -14 6 -23 19 -23 32 0 15
-10 27 -35 38 -32 16 -34 20 -34 63 1 26 -1 55 -3 66 -4 25 29 46 42 26 6 -8
9 -24 8 -35 -3 -28 18 -62 42 -68 15 -4 20 0 20 14 0 11 6 28 12 39 10 16 10
22 -3 32 -39 32 -62 79 -56 119 5 36 3 39 -19 39 -14 0 -36 11 -50 25 -14 14
-42 29 -63 34 l-38 8 14 -29 c11 -22 12 -32 3 -43 -9 -10 -7 -15 10 -20 25 -8
54 -50 45 -65 -3 -5 -15 -10 -26 -10 -20 0 -20 -7 -2 -57 3 -6 -6 -17 -19 -24
-13 -6 -25 -15 -28 -18 -24 -28 -40 -32 -72 -18 -63 29 -143 46 -159 36 -15
-10 -6 -20 56 -64 39 -28 90 -78 92 -92 2 -7 -6 -17 -17 -23 -11 -6 -20 -17
-20 -25 0 -25 -40 -17 -77 15 -27 25 -38 29 -49 19 -7 -6 -19 -9 -26 -6 -7 2
-17 5 -22 5 -5 0 -13 6 -17 14 -6 10 -9 8 -9 -7 0 -11 9 -26 20 -33 28 -17 26
-49 -3 -54 -19 -4 -31 6 -62 49 -21 29 -46 53 -55 53 -24 0 -81 -55 -68 -68
16 -16 -9 -24 -32 -10 -17 11 -22 11 -29 -1 -5 -8 -19 -12 -34 -9 -23 5 -24 3
-14 -19 11 -25 42 -31 50 -10 7 16 46 -31 47 -56 0 -11 8 -21 19 -24 24 -6 43
-48 35 -79 -8 -30 -13 -30 -43 1 -13 14 -27 25 -31 25 -4 0 -11 11 -14 25 -4
14 -11 25 -17 25 -15 0 -89 59 -89 71 0 17 -73 89 -112 111 -21 12 -38 25 -38
30 0 4 -5 8 -12 8 -6 0 -4 -7 5 -18 10 -10 17 -26 17 -34 0 -9 18 -32 39 -51
50 -45 71 -77 67 -102 -5 -36 -34 -22 -111 54 -42 40 -78 71 -81 68 -3 -3 8
-19 25 -36 34 -35 39 -62 16 -81 -22 -19 -2 -38 35 -32 21 3 30 0 30 -9 0 -19
56 -49 91 -49 16 0 29 -4 29 -10 0 -5 20 -21 45 -35 53 -31 105 -88 105 -115
0 -10 7 -23 16 -28 9 -5 14 -18 12 -33 -2 -18 -9 -23 -26 -22 -34 4 -28 -30
12 -72 33 -34 34 -38 29 -93 -2 -31 -6 -63 -9 -69 -6 -22 -40 -14 -52 12 -20
42 -56 142 -74 205 -6 19 -16 39 -24 43 -8 4 -14 16 -14 26 0 10 -12 26 -26
36 -19 12 -24 22 -20 39 4 15 -1 25 -15 34 -11 7 -17 17 -14 23 4 6 -9 9 -34
7 -51 -4 -52 -17 -6 -74 35 -42 44 -64 26 -64 -5 0 -11 -10 -13 -22 -2 -17
-11 -24 -33 -26 -16 -2 -36 -9 -43 -14 -10 -8 -21 -3 -47 22 -19 19 -37 31
-41 28 -9 -10 6 -48 18 -48 7 0 27 -17 46 -37 27 -30 34 -46 35 -83 1 -26 -3
-49 -10 -55 -10 -8 -10 -16 2 -39 20 -37 19 -58 -1 -54 -10 2 -27 29 -41 63
-13 33 -33 77 -44 97 -10 20 -19 46 -19 57 0 11 -13 29 -30 41 -34 24 -66 85
-62 117 2 15 -3 25 -15 29 -10 4 -39 27 -65 53 -112 111 -128 125 -132 120 -3
-3 -7 -20 -8 -38 -1 -18 -6 -35 -11 -38 -4 -2 4 -25 18 -49 24 -42 25 -44 6
-44 -22 0 -71 79 -71 115 0 13 -8 33 -18 45 -16 20 -22 22 -49 12 -18 -6 -35
-6 -40 -1 -14 14 -53 -2 -53 -22 0 -28 -41 -24 -74 6 -30 28 -56 33 -56 10 0
-20 -16 -19 -24 0 -4 10 2 19 17 25 21 8 21 9 -5 9 -16 1 -28 6 -28 11 0 6 -7
22 -16 35 -15 23 -17 23 -40 8 -23 -15 -25 -14 -45 11 -12 15 -27 25 -35 22
-8 -3 -20 8 -29 28 -16 33 -84 96 -104 96 -20 0 -11 -25 17 -51 15 -13 37 -36
49 -49 11 -14 37 -39 56 -57 20 -18 38 -41 42 -53 3 -11 19 -27 34 -35 29 -14
45 -38 34 -49 -14 -13 -42 -5 -48 14 -4 13 -15 20 -31 20 l-25 0 21 -22 c12
-14 17 -25 11 -31 -16 -16 -41 1 -41 29 0 14 -13 43 -29 63 -15 20 -27 44 -26
53 2 10 -1 20 -6 24 -5 3 -9 -2 -9 -11 0 -10 -7 -15 -17 -13 -12 2 -20 17 -25
46 -8 50 -16 65 -29 57 -13 -9 -11 -55 2 -55 8 0 8 -5 -1 -15 -20 -24 -39 -17
-57 20 -11 24 -24 35 -38 35 -13 0 -39 20 -68 54 -51 59 -55 71 -31 80 10 4
13 13 10 24 -4 10 -8 40 -11 66 -5 46 -5 46 23 40 15 -4 37 -16 49 -27 63 -57
80 54 27 168 -19 39 -34 134 -23 141 14 8 27 -4 44 -40 9 -18 26 -44 37 -56
l22 -23 12 34 c18 49 17 61 -9 89 -13 15 -21 34 -19 49 2 13 -1 33 -6 45 -5
12 -15 40 -22 63 -7 23 -21 51 -30 61 -18 19 -32 82 -18 82 5 0 6 14 3 32 -4
20 -1 34 7 39 18 12 28 11 28 -2 0 -10 29 -72 54 -116 11 -20 88 -83 101 -83
14 0 2 26 -31 65 -25 31 -38 58 -43 92 -5 39 -10 47 -25 45 -10 -2 -15 1 -12
6 3 6 -1 12 -9 16 -18 7 -20 66 -2 85 10 11 7 12 -14 7 -20 -4 -28 -1 -38 17
-7 13 -22 29 -33 36 -27 17 -38 1 -33 -46 2 -22 -2 -33 -10 -33 -17 0 -27 27
-12 34 7 2 6 5 -4 5 -8 1 -23 17 -32 36 -14 30 -20 35 -42 29 -15 -4 -25 -2
-26 5 -5 41 -21 63 -42 57 -27 -7 -103 52 -88 67 16 16 -17 47 -51 47 -16 0
-37 4 -46 9 -9 4 -49 11 -88 15 -58 6 -75 4 -87 -8 -14 -14 -17 -11 -31 31 -9
26 -16 48 -16 50 0 10 74 33 105 33 20 0 43 7 52 15 21 21 12 28 -20 16 -20
-8 -28 -7 -34 4 -13 22 -123 23 -135 2 -10 -18 -38 -23 -38 -8 0 5 7 17 15 25
14 14 14 18 -2 43 -24 37 -39 53 -46 47 -9 -10 -47 7 -47 20 0 9 9 12 24 9 17
-4 28 2 40 18 9 13 26 28 38 35 18 10 24 9 38 -8 13 -16 23 -18 53 -13 20 4
37 11 37 16 0 5 7 9 15 9 8 0 15 -5 15 -10 0 -7 6 -7 18 -1 10 5 37 7 60 4 28
-4 42 -2 42 6 0 6 -16 11 -35 11 -41 0 -48 19 -7 21 23 2 24 2 5 6 -14 3 -23
11 -22 21 0 11 3 12 6 5 2 -7 13 -13 24 -13 14 0 19 7 20 28 2 38 -2 57 -11
60 -4 2 -6 12 -3 22 3 12 0 20 -7 20 -9 0 -8 6 3 18 10 10 17 25 17 33 0 21
48 62 65 55 8 -3 16 -13 16 -23 1 -10 3 -25 4 -33 1 -8 3 -25 4 -37 0 -14 8
-23 17 -23 10 0 14 6 11 14 -3 8 1 20 9 26 8 7 14 26 14 42 0 21 11 41 40 69
21 21 46 39 55 39 8 0 27 -13 42 -30 24 -27 52 -43 39 -22 -3 5 14 8 37 7 28
-1 54 5 77 20 41 25 70 38 89 39 8 1 26 18 40 38 40 58 58 66 121 58 30 -4 62
-5 71 -3 9 3 20 0 23 -6 8 -13 46 -15 46 -3 0 5 -12 15 -27 22 -35 16 -16 24
29 12 26 -7 33 -14 33 -33 0 -46 37 -69 48 -29 4 14 14 20 35 20 17 0 33 4 36
9 3 5 27 7 53 5 27 -2 51 -3 56 -4 4 0 7 -8 8 -17 0 -11 3 -13 6 -5 5 13 33
17 33 5 0 -15 52 -32 80 -26 17 3 37 -1 50 -10 l21 -15 -27 -21 c-15 -11 -34
-21 -42 -21 -13 0 -12 3 4 14 26 20 10 32 -21 16 -16 -8 -23 -20 -21 -33 2
-17 11 -21 54 -22 48 -2 52 0 52 22 0 12 3 23 6 23 15 0 72 -38 96 -65 20 -22
30 -27 38 -19 7 7 28 10 51 7 24 -4 39 -2 39 5 0 5 9 8 20 5 11 -3 20 -9 20
-14 0 -12 107 -11 149 1 21 6 39 6 45 0 7 -5 36 -7 66 -6 30 2 60 0 65 -4 15
-12 75 -18 81 -8 11 18 42 6 75 -28 18 -19 33 -38 31 -42 -5 -13 43 -62 60
-62 13 0 18 -8 18 -25 0 -21 5 -25 30 -25 17 0 30 -4 30 -10 0 -5 -5 -10 -11
-10 -6 0 -17 -7 -25 -15 -14 -13 -12 -16 13 -27 27 -12 153 -134 153 -149 0
-4 17 -10 37 -14 24 -4 32 -9 24 -15 -9 -5 -10 -9 -2 -14 6 -4 9 -11 6 -15 -2
-5 5 -19 16 -32 l21 -24 -6 23 c-5 14 -3 22 4 22 13 0 3 43 -11 48 -5 2 -9 10
-9 18 0 17 24 18 51 2 17 -11 22 -10 38 10 l17 24 18 -41 c13 -27 28 -43 49
-50 39 -14 42 -14 28 3 -6 7 -11 24 -11 37 1 132 6 149 45 149 27 0 35 -16 28
-53 -4 -22 -2 -27 13 -27 11 0 25 9 32 20 7 11 19 20 27 20 18 0 19 13 3 57
-10 29 -10 36 2 43 24 15 30 12 30 -15 0 -14 4 -25 9 -25 5 0 14 -13 21 -30
19 -45 37 -35 31 16 -3 27 19 64 39 64 12 0 18 -4 15 -10 -8 -13 10 -13 33 -1
9 5 25 12 35 15 12 4 17 16 17 42 0 27 5 37 20 41 16 4 20 14 20 49 0 23 4 45
9 49 10 6 51 -46 51 -64 0 -6 4 -11 9 -11 18 0 23 204 7 301 -8 46 -5 59 36
145 12 25 7 66 -7 71 -17 5 -49 -66 -47 -101 2 -24 -5 -41 -25 -62 -26 -28
-31 -59 -12 -79 5 -5 9 -19 9 -32 0 -16 -4 -21 -15 -17 -8 4 -15 13 -15 21 0
8 -6 13 -13 10 -10 -4 -12 3 -9 25 4 24 -1 35 -18 48 -27 21 -21 50 10 50 31
0 34 22 10 68 -12 23 -20 52 -18 66 3 25 -26 66 -47 66 -13 0 -29 59 -19 69 3
3 16 -6 28 -21 14 -18 31 -28 49 -28 31 0 33 8 12 36 -16 22 -20 64 -5 64 5 0
17 -12 27 -27 10 -16 23 -32 30 -36 7 -4 13 -15 13 -22 0 -8 5 -15 10 -15 12
0 13 41 1 72 -11 29 -59 78 -87 89 -12 4 -37 35 -55 68 -24 44 -39 61 -54 61
-34 0 -93 47 -100 79 -4 20 -16 33 -36 41 -16 7 -42 31 -57 54 -23 33 -34 41
-57 39 -15 -1 -42 5 -59 14 -34 17 -98 81 -123 124 -12 19 -27 29 -55 33 -31
5 -43 14 -59 41 -21 36 -49 47 -49 20 0 -27 -30 -16 -51 20 -17 29 -27 35 -54
35 -19 0 -37 -4 -40 -10 -3 -5 -19 -7 -35 -3 -26 5 -30 2 -30 -16 0 -25 -17
-27 -41 -6 -15 14 -18 14 -33 -1 -16 -15 -18 -15 -36 1 -10 9 -21 34 -25 55
l-6 38 -34 -14 c-45 -19 -52 -18 -58 7 -4 15 -2 19 9 15 19 -7 18 14 -2 42
-23 33 -47 29 -39 -7 4 -17 2 -32 -5 -36 -12 -8 -50 22 -50 39 0 6 -9 17 -20
24 -18 11 -20 10 -20 -9 0 -12 -8 -23 -20 -26 -11 -3 -20 -9 -20 -14 0 -5 -9
-9 -20 -9 -15 0 -20 7 -20 29 0 21 -10 39 -32 60 -33 31 -58 40 -58 21 0 -20
-29 -10 -35 13 -4 12 -13 36 -20 52 -7 17 -15 38 -19 48 -3 9 -12 17 -21 17
-11 0 -15 -11 -15 -40 0 -54 -22 -53 -54 3 -28 47 -71 77 -109 77 -14 0 -29 5
-32 10 -3 6 -13 10 -21 10 -9 0 -1 -16 22 -47 30 -40 34 -49 20 -51 -23 -5
-85 44 -92 73 -7 30 2 45 28 45 14 0 18 5 14 16 -3 9 -6 18 -6 20 0 2 -6 4
-14 4 -8 0 -20 13 -27 30 -11 24 -25 33 -80 50 -75 22 -99 25 -99 10 0 -5 -8
-10 -17 -11 -14 0 -13 -2 5 -9 15 -6 22 -18 22 -35 0 -14 -3 -25 -6 -25 -4 0
-30 25 -59 54 -57 60 -102 80 -117 53 -7 -13 -18 -15 -55 -10 -35 5 -53 14
-79 42 -31 32 -35 34 -45 18 -11 -19 -44 -23 -54 -7 -3 6 -14 10 -24 10 -10 0
-24 7 -31 15 -8 10 -30 15 -65 15 -43 0 -54 -3 -58 -19 -7 -27 -53 -32 -103
-10 -26 12 -53 17 -68 13 -13 -3 -33 -1 -42 4 -11 6 -27 7 -41 1 -15 -5 -31
-4 -49 6 -15 7 -32 12 -38 10 -6 -2 -39 -6 -73 -10 -50 -5 -63 -3 -63 8 0 7
-14 26 -31 43 -20 20 -28 35 -25 49 8 32 -5 97 -19 91 -6 -2 -18 0 -26 5 -12
7 -12 9 0 9 9 0 10 4 4 13 -5 6 -10 26 -11 42 -3 31 -71 105 -98 105 -9 0 -11
10 -7 36 5 33 4 36 -13 30 -16 -5 -23 1 -33 31 -8 21 -22 46 -33 56 -21 21
-70 118 -63 125 3 3 -7 14 -22 24 -16 10 -22 18 -15 18 9 0 10 5 2 19 -13 26
-13 87 2 110 7 11 8 26 3 37 -5 11 -9 26 -10 34 -1 8 -5 25 -9 38 -6 18 -4 22
13 22 12 0 21 -7 21 -15 0 -25 15 -17 16 9 1 14 -4 27 -11 30 -23 9 -33 39
-22 66 18 44 16 92 -4 97 -17 5 -18 14 -4 47 4 10 4 21 -1 25 -13 9 -17 41 -4
41 5 0 10 -6 10 -12 0 -9 4 -8 10 2 14 22 12 31 -7 28 -14 -2 -19 5 -21 30 -3
32 -3 32 41 32 37 0 45 3 43 18 0 9 -7 23 -13 30 -7 7 -13 22 -13 33 0 10 6
19 13 20 6 0 2 4 -10 9 -24 10 -30 25 -13 35 6 3 10 15 10 26 0 11 6 22 13 25
9 3 14 28 15 80 0 52 6 84 17 101 12 18 14 28 6 36 -6 6 -11 19 -11 30 0 15 5
17 28 12 20 -4 35 0 52 15 12 11 18 20 12 20 -21 0 4 54 27 60 13 3 28 18 36
36 11 28 11 32 -8 44 -20 12 -20 13 -1 27 10 7 19 17 19 21 0 4 9 20 19 35 19
29 30 87 16 87 -4 0 -10 13 -12 30 -3 22 2 36 19 52 19 18 23 29 18 55 -3 18
-1 34 5 38 6 4 8 15 5 26 -4 11 -2 19 5 19 6 0 10 8 8 18 -2 9 3 22 12 29 13
11 13 12 0 13 -24 0 -23 57 0 70 11 6 19 14 19 18 -4 22 3 32 21 32 11 0 20 5
20 10 0 6 -4 10 -10 10 -19 0 -10 17 15 28 14 7 25 20 25 31 0 11 5 23 12 27
8 5 6 11 -6 19 -14 11 -13 13 15 19 17 3 34 4 38 1 11 -6 10 28 -2 43 -7 8 -5
12 6 12 14 0 34 35 29 53 -1 4 3 7 8 7 6 0 10 -4 10 -10 0 -5 6 -10 14 -10 17
0 10 37 -11 62 -10 11 -12 22 -5 35 5 10 7 23 5 30 -2 6 4 14 14 17 18 6 27
56 10 56 -5 0 1 12 13 28 l22 27 -21 3 c-32 5 -25 22 9 22 23 0 28 4 23 16 -3
8 -17 20 -30 25 l-24 9 22 30 c13 16 20 33 16 36 -4 4 2 14 13 21 11 8 26 29
33 46 14 32 11 77 -4 77 -10 0 -23 85 -15 99 5 7 15 7 31 1 29 -11 35 6 9 25
-14 10 -14 13 -2 26 20 19 20 24 4 64 -13 31 -13 35 2 40 23 7 56 65 37 65 -8
0 -12 9 -10 25 1 14 -2 28 -6 31 -15 9 -10 21 11 27 14 3 20 14 20 31 0 30 -7
32 -31 10 -17 -15 -18 -14 -14 16 3 18 11 40 19 49 8 9 14 34 14 56 -2 59 13
126 28 132 8 3 11 10 7 17 -14 22 -11 35 14 51 31 20 28 59 -4 63 -37 5 -27
43 15 56 12 4 20 12 16 17 -3 5 -10 7 -15 4 -5 -4 -9 -1 -9 4 0 6 4 11 8 11 4
0 14 17 22 38 7 20 15 31 17 25 3 -7 8 -13 13 -13 11 0 2 50 -11 66 -5 6 -6
14 -2 18 9 9 14 65 15 176 1 47 6 88 11 92 6 4 4 13 -6 23 -19 19 -21 31 -7
40 6 3 10 21 10 39 0 19 6 39 14 45 9 8 14 29 13 58 -1 30 3 48 11 51 18 6 4
22 -19 22 -10 0 -19 7 -19 15 0 8 7 15 15 15 9 0 15 9 15 25 0 14 -4 25 -9 25
-5 0 -11 7 -15 15 -6 17 36 67 56 64 27 -3 38 1 38 16 0 15 -10 19 -43 15 -22
-2 -49 19 -41 31 3 5 10 7 15 4 13 -9 11 19 -2 32 -8 8 -7 20 5 44 21 43 20
52 -5 39 -11 -7 -23 -10 -25 -7 -5 5 9 20 55 57 31 24 31 25 9 30 -34 9 -34
38 1 69 38 34 41 61 7 61 -13 0 -29 7 -36 15 -7 8 -9 15 -5 15 4 0 2 7 -5 15
-10 13 -10 19 4 33 20 23 21 52 0 52 -11 0 -14 6 -9 20 4 14 1 22 -12 28 -10
4 -19 12 -19 17 -1 6 -5 27 -8 48 -5 28 -3 39 8 43 12 5 13 10 4 30 -6 13 -15
24 -20 24 -4 0 -8 7 -8 15 0 8 -5 15 -11 15 -7 0 -9 10 -5 25 5 19 3 23 -9 19
-12 -5 -15 3 -16 37 0 24 -2 54 -5 67 -2 13 0 31 5 39 5 10 3 29 -5 50 -16 36
-9 83 11 83 7 0 16 8 19 17 6 15 8 15 17 3 8 -13 11 -12 22 5 6 11 15 36 19
55 3 19 9 52 14 74 7 37 6 38 -15 27 -14 -8 -21 -21 -21 -41 0 -16 -8 -45 -17
-65 -16 -34 -34 -42 -67 -29 -18 7 -10 34 10 34 8 0 14 7 14 15 0 17 20 56 34
66 4 4 3 16 -4 29 -11 21 -13 19 -43 -41 -27 -54 -37 -64 -67 -72 -19 -5 -41
-14 -48 -20 -13 -10 -52 -18 -52 -10 0 3 5 13 10 24 13 23 -3 59 -25 59 -9 0
-12 6 -9 15 4 8 1 15 -5 15 -6 0 -11 11 -11 24 0 28 -19 39 -41 22 -8 -6 -30
-32 -48 -58 -17 -27 -36 -48 -41 -48 -15 0 -12 16 4 29 9 7 14 31 14 59 0 25
-6 59 -14 74 -19 37 -18 42 16 79 16 18 28 35 25 37 -2 3 7 19 20 37 32 41 33
65 3 57 -13 -3 -27 -11 -31 -19 -4 -7 -17 -13 -27 -13 -16 0 -20 -7 -20 -30 0
-37 -14 -38 -37 -4 -16 24 -16 28 2 60 10 19 24 34 32 34 15 0 54 60 47 72
-11 17 -32 7 -78 -37 -27 -25 -51 -45 -55 -45 -3 0 -19 7 -35 15 -29 15 -45 9
-46 -17 0 -5 -7 -8 -15 -8 -8 0 -15 -4 -15 -10 0 -5 -4 -10 -10 -10 -21 0 -9
56 20 90 16 19 30 40 30 47 0 6 3 18 6 27 8 20 -31 22 -43 3 -8 -14 -38 -28
-51 -25 -10 3 -3 30 14 49 15 16 20 69 6 69 -15 0 -52 -31 -52 -44 0 -7 -8
-20 -18 -29 -14 -13 -21 -14 -30 -5 -18 18 -15 36 8 50 13 9 20 24 20 46 0 20
-4 31 -10 27 -5 -3 -10 -1 -10 4 0 6 4 11 9 11 4 0 6 11 3 25 -3 18 0 25 11
25 9 0 21 16 28 38 7 20 19 42 27 48 16 12 10 44 -9 44 -6 0 -13 -9 -16 -19
-3 -11 -15 -21 -27 -23 -15 -2 -22 -11 -24 -30 -2 -16 -8 -28 -14 -28 -6 0 -8
3 -5 7 4 3 0 15 -10 25 -10 12 -12 18 -4 18 7 0 10 4 7 9 -3 4 6 19 19 31 14
13 25 29 25 37 0 23 -25 14 -42 -17 -9 -17 -21 -30 -26 -30 -20 0 -57 46 -54
68 4 25 -10 29 -31 7 -13 -13 -16 -13 -21 0 -3 8 -1 15 4 15 9 0 34 39 46 73
3 9 13 17 20 17 8 0 14 5 14 10 0 6 -16 10 -35 10 -19 0 -35 -4 -35 -10 0 -5
-4 -10 -9 -10 -10 0 -8 61 3 78 9 16 -11 52 -29 52 -8 0 -15 -5 -15 -11 0 -13
-21 -7 -22 6 -1 6 -14 16 -30 24 -20 10 -27 19 -24 35 7 33 17 56 27 56 5 0 9
6 9 14 0 7 7 19 15 26 20 16 19 36 -1 44 -21 8 -22 7 -26 -27 -2 -15 -6 -27
-9 -26 -10 5 -49 -23 -44 -31 3 -4 -4 -6 -16 -3 -16 4 -17 8 -7 14 11 7 10 9
-1 9 -11 0 -11 4 2 18 10 10 17 27 17 36 0 24 32 76 46 76 6 0 11 8 10 17 -2
26 34 29 41 4 6 -25 20 -26 48 -5 17 13 18 16 5 24 -21 13 -33 12 -24 -2 4 -6
-3 -4 -17 5 -13 9 -29 17 -36 17 -18 0 -53 -32 -47 -42 7 -11 -3 -10 -26 2
-19 10 -39 -3 -21 -15 12 -7 3 -35 -10 -35 -5 0 -8 3 -8 8 4 21 -3 33 -25 43
-16 8 -22 17 -19 30 7 26 -4 24 -32 -7 -13 -14 -29 -23 -35 -19 -7 4 -23 2
-36 -6 -13 -7 -27 -10 -30 -7 -9 10 16 48 31 48 9 0 15 10 15 25 0 21 5 25 28
25 20 0 23 3 13 9 -12 7 -12 13 -3 24 7 7 9 17 5 20 -3 4 1 7 10 7 10 0 17 5
17 10 0 6 10 20 21 31 24 24 31 57 16 77 -14 18 -34 15 -57 -10 -15 -16 -17
-24 -8 -30 9 -5 5 -8 -11 -8 -19 0 -22 4 -18 21 3 12 1 33 -5 48 -20 47 -18
74 8 109 26 33 26 33 41 13 19 -28 31 -26 43 4 14 36 19 31 13 -15 -4 -31 -2
-41 11 -46 23 -9 32 2 16 21 -10 13 -9 15 7 15 26 0 45 40 29 62 -8 11 -18 13
-34 7 -16 -6 -22 -5 -22 6 0 7 4 16 10 20 11 7 2 35 -12 35 -5 0 -7 -4 -4 -9
3 -5 -14 -12 -38 -15 -25 -4 -50 -14 -56 -21 -18 -22 -30 -18 -30 9 0 18 6 25
23 28 19 3 22 8 19 38 -2 19 -8 41 -14 48 -7 8 -7 12 1 12 6 0 11 -4 11 -10 0
-5 9 -10 20 -10 11 0 20 -4 20 -10 0 -15 26 -12 41 6 10 13 10 17 -2 25 -10 8
-8 9 11 7 22 -3 25 0 22 25 -2 16 1 27 8 27 7 0 10 7 7 15 -4 8 -2 17 3 20 6
4 10 15 10 26 0 12 -4 17 -11 14 -5 -4 -19 1 -30 11 -18 16 -19 16 -19 -5 0
-18 -2 -20 -14 -9 -10 9 -11 15 -2 20 8 6 7 8 -2 8 -10 0 -10 4 0 20 7 11 18
20 25 20 7 0 12 3 11 8 0 4 8 27 18 51 18 40 21 42 34 25 12 -13 12 -18 3 -21
-7 -3 -13 -9 -13 -14 0 -16 19 -9 45 17 21 21 24 29 13 36 -8 6 -1 7 21 3 32
-7 33 -6 27 18 -5 20 1 34 24 60 18 20 30 46 30 62 0 18 6 28 20 32 11 3 20
14 20 25 0 11 10 28 23 39 19 16 19 18 5 19 -10 0 -18 -4 -18 -10 0 -5 -5 -10
-11 -10 -6 0 -8 9 -4 20 4 14 2 20 -9 20 -8 0 -20 9 -26 19 -13 26 -14 26 14
26 18 0 22 -3 14 -12 -8 -10 -4 -13 16 -13 14 0 26 -6 26 -12 0 -9 3 -10 8 -2
4 6 19 14 35 18 15 3 27 11 27 17 0 6 10 19 21 28 19 15 20 20 9 41 -9 18 -10
32 -1 62 11 35 14 38 39 32 l27 -5 -29 26 c-15 14 -27 27 -25 29 2 2 14 9 27
15 20 11 26 10 38 -6 15 -21 19 -11 5 15 -6 9 -12 33 -16 53 -5 32 -8 36 -31
31 -16 -3 -21 -7 -14 -12 8 -5 7 -9 -4 -13 -8 -3 -18 -2 -21 4 -8 12 4 49 16
49 5 0 14 11 19 25 5 14 14 25 20 25 6 0 15 11 20 25 9 22 13 24 31 15 24 -13
49 -7 48 12 0 10 -2 10 -6 1 -5 -14 -33 -18 -33 -5 0 4 11 19 25 34 14 15 25
33 25 41 0 7 11 24 25 37 14 13 25 29 25 36 0 6 7 17 15 24 8 7 15 22 15 35 0
12 9 32 20 45 24 27 25 34 6 27 -8 -3 -20 0 -26 8 -13 15 -2 59 26 113 l14 27
0 -30 c-1 -25 3 -66 9 -97 0 -5 15 -8 31 -8 17 0 30 -4 30 -10 0 -5 -13 -10
-29 -10 -42 0 -55 -20 -36 -56 8 -16 15 -35 15 -41 0 -7 7 -13 15 -13 15 0 16
24 2 48 -12 18 1 32 28 32 19 0 23 4 18 17 -5 12 -2 15 10 10 11 -4 22 2 32
16 35 50 2 88 -39 44 -16 -18 -27 -22 -37 -16 -12 8 -12 11 2 22 19 15 32 47
19 47 -17 0 -42 68 -34 92 4 13 7 27 6 31 -1 4 8 3 20 -4 17 -9 23 -9 26 0 2
6 10 17 17 25 8 7 11 16 8 20 -4 3 3 6 15 6 15 0 20 5 16 15 -4 8 -1 15 5 15
16 0 14 20 -3 26 -8 3 -25 -6 -39 -20 -18 -18 -31 -23 -48 -18 -19 5 -20 7 -6
10 9 2 15 8 12 12 -3 5 4 19 15 30 11 11 18 26 14 32 -5 8 -2 9 9 5 25 -10 20
8 -5 22 -20 10 -19 11 15 6 33 -5 37 -4 37 15 0 17 4 20 20 15 13 -4 22 -1 26
9 4 10 18 16 36 16 27 0 30 2 24 25 -4 14 -3 25 1 25 13 0 79 64 92 89 10 17
16 20 24 12 9 -9 8 -17 -1 -32 -8 -12 -11 -23 -8 -26 8 -8 73 49 79 70 6 21
27 23 27 2 0 -8 5 -15 10 -15 6 0 10 5 10 12 0 6 3 8 7 5 3 -4 -3 -16 -15 -27
-30 -28 -28 -50 3 -50 14 0 25 6 25 13 0 8 10 25 23 38 12 13 21 22 20 20 -1
-2 6 -16 17 -31 17 -24 18 -29 5 -46 -8 -10 -15 -22 -15 -25 0 -10 59 -8 65 2
4 5 15 9 26 9 21 0 26 16 7 23 -7 2 -9 8 -5 13 5 5 13 1 18 -9 6 -9 19 -17 31
-17 19 0 20 -1 4 -25 -15 -24 -15 -25 2 -25 10 0 23 5 30 12 9 9 12 8 12 -5 0
-9 7 -17 15 -17 14 0 19 -11 16 -37 -2 -18 44 -16 58 1 7 8 16 28 21 46 8 27
7 31 -6 26 -9 -3 -19 -6 -24 -6 -4 0 -10 -9 -13 -21 -5 -18 -8 -19 -20 -8 -17
16 -11 46 12 52 14 4 14 5 -1 6 -22 1 -23 14 -3 31 12 10 18 8 35 -11 10 -13
19 -20 20 -15 0 5 10 -2 23 -15 15 -16 34 -24 60 -25 40 -1 46 8 22 32 -17 18
-20 34 -4 34 6 0 7 5 2 13 -13 21 -11 33 8 45 11 7 19 9 18 5 -4 -27 4 -30 74
-26 103 6 115 6 132 -1 17 -6 21 -46 5 -46 -5 0 -10 -4 -10 -10 0 -19 28 -10
33 10 6 23 30 35 54 26 12 -5 14 -9 5 -18 -17 -17 -15 -38 3 -38 19 0 35 -28
35 -62 0 -25 21 10 27 43 8 53 20 62 76 56 42 -5 48 -4 45 11 -2 9 -19 21 -38
26 -59 16 -62 51 -4 44 20 -2 29 -8 28 -20 -2 -20 11 -24 21 -8 3 6 19 10 35
10 15 0 30 5 32 11 4 11 64 16 75 5 4 -3 -2 -12 -12 -20 -18 -13 -18 -14 3
-20 12 -4 26 -5 30 -2 5 3 23 -4 40 -15 18 -10 40 -19 50 -19 9 0 32 -9 51
-21 28 -17 39 -19 59 -10 18 9 28 9 38 0 11 -9 14 -7 14 8 0 13 -12 24 -35 33
-19 8 -35 16 -35 19 0 16 93 10 128 -8 l37 -20 -37 -1 c-32 0 -37 -3 -43 -30
-4 -16 -11 -30 -17 -30 -7 0 -7 -4 0 -13 14 -16 58 -20 83 -7 10 6 19 7 19 3
0 -17 51 -31 80 -23 17 5 30 7 30 4 0 -3 8 0 18 5 14 7 23 5 35 -10 10 -11 30
-19 49 -19 18 0 40 -4 47 -9 9 -6 22 -6 34 1 15 8 23 5 38 -11 23 -25 54 -27
63 -6 8 23 61 18 111 -9 24 -14 58 -24 76 -24 18 1 35 -4 37 -10 6 -19 51 -14
64 8 7 11 23 20 36 20 12 0 25 7 28 15 8 20 33 19 55 -1 22 -20 47 -12 58 18
7 18 16 22 61 24 57 2 84 21 73 52 -5 12 -2 14 13 8 47 -19 88 -21 201 -13 62
5 82 3 80 -6 -3 -17 59 -13 113 8 29 10 59 15 85 11 114 -16 131 -19 139 -26
4 -4 22 -4 39 1 17 5 54 9 82 10 46 1 105 15 105 26 0 17 -24 43 -39 43 -22 0
-36 39 -16 46 7 3 36 1 63 -4 32 -6 54 -6 60 0 6 6 19 5 33 -3 13 -7 28 -12
34 -10 5 1 15 -6 22 -15 7 -10 13 -12 13 -6 0 15 37 16 42 1 3 -9 10 -8 25 1
12 8 19 19 17 25 -6 13 33 17 42 4 3 -5 0 -16 -6 -24 -18 -21 -2 -40 18 -21
21 18 79 14 123 -8 18 -9 39 -16 47 -16 8 0 41 -18 74 -40 33 -22 66 -40 73
-40 6 0 20 -9 30 -20 10 -11 24 -20 31 -20 7 0 18 -8 23 -18 5 -10 21 -24 34
-31 22 -11 33 -10 82 8 32 12 60 20 62 17 7 -7 -29 -42 -49 -49 -10 -4 -18
-11 -18 -17 0 -14 17 -13 22 1 5 14 53 15 81 1 12 -6 43 -16 70 -22 26 -7 50
-17 53 -21 7 -12 44 -11 44 1 0 6 5 10 11 10 5 0 9 -10 7 -22 -3 -21 1 -23 35
-20 26 2 39 -2 43 -13 3 -8 13 -15 21 -15 8 0 26 -9 40 -20 14 -11 31 -20 38
-20 7 0 18 -14 24 -31 6 -18 16 -29 23 -26 7 2 12 10 10 16 -4 20 82 13 106
-9 12 -11 27 -20 34 -20 17 0 86 -24 94 -33 4 -4 18 -7 30 -7 13 0 25 -4 28
-9 8 -13 125 -53 139 -47 7 2 2 5 -10 5 -16 1 -23 7 -23 21 0 20 1 20 43 -3
25 -14 41 -31 41 -41 -1 -10 6 -16 17 -16 11 0 19 5 19 11 0 13 62 1 72 -14 9
-14 130 -28 143 -16 16 16 65 10 82 -11 21 -24 51 -26 59 -5 7 17 79 21 89 5
3 -5 21 -10 39 -10 19 0 39 -7 47 -16 11 -14 13 -14 21 0 7 13 13 14 29 5 19
-10 20 -12 4 -29 -19 -21 -6 -35 25 -25 12 4 20 2 20 -5 0 -8 10 -10 26 -7 22
4 35 -4 70 -39 62 -62 83 -73 137 -72 67 0 92 -20 107 -84 23 -102 43 -137 83
-138 10 0 20 -7 23 -15 4 -8 13 -15 21 -15 8 0 11 -4 8 -10 -3 -5 -1 -10 4
-10 6 0 11 -6 11 -12 0 -7 6 -25 14 -40 15 -28 31 -88 28 -101 -1 -4 5 -24 14
-45 9 -20 18 -48 20 -62 3 -14 16 -52 30 -86 13 -33 24 -67 24 -75 0 -8 9 -37
19 -65 18 -45 33 -164 46 -348 2 -27 8 -59 13 -70 28 -62 35 -83 33 -99 -1
-10 3 -24 9 -32 6 -7 13 -34 16 -58 2 -24 11 -61 20 -82 8 -21 18 -63 20 -94
3 -31 10 -81 16 -111 6 -30 10 -69 9 -87 -1 -17 3 -42 10 -55 7 -13 14 -57 15
-98 1 -41 5 -93 8 -115 3 -22 6 -48 6 -57 1 -10 6 -20 11 -23 5 -4 7 -11 4
-16 -11 -16 -15 -540 -5 -559 5 -9 6 -20 3 -24 -15 -15 -16 -34 -7 -211 9
-187 10 -295 0 -385 -4 -41 -9 -124 -11 -185 -1 -60 -6 -118 -10 -127 -4 -9
-4 -21 -1 -27 3 -5 1 -11 -5 -13 -6 -2 -13 -33 -15 -68 -2 -36 -8 -96 -15
-135 -6 -38 -13 -117 -14 -175 -1 -58 -5 -112 -8 -120 -3 -8 -8 -31 -11 -50
-6 -38 -7 -41 -25 -84 -7 -17 -11 -39 -9 -50 1 -12 -1 -26 -5 -32 -13 -22 -19
-178 -8 -206 12 -31 38 -37 48 -10 3 9 14 25 24 34 16 16 17 16 24 -9 8 -34 8
-195 -1 -217 -11 -28 -47 -15 -65 24 -12 25 -14 37 -5 42 6 4 7 8 3 8 -5 0 -1
10 7 22 16 23 22 68 9 68 -5 0 -21 -12 -36 -25 -21 -19 -26 -29 -19 -42 11
-22 -9 -128 -22 -116 -5 5 -6 -19 -2 -56 5 -56 4 -66 -15 -82 -16 -14 -18 -22
-10 -37 7 -14 6 -24 -3 -38 -14 -20 -20 -60 -36 -259 -19 -228 -20 -361 -5
-381 20 -27 18 -50 -6 -73 -19 -17 -19 -22 -8 -60 8 -27 18 -41 29 -41 23 0
42 24 35 42 -10 26 36 30 82 7 42 -20 47 -29 45 -77 -1 -17 3 -22 16 -20 12 3
16 12 14 34 -1 17 6 50 16 75 17 39 18 47 5 66 -8 11 -14 45 -15 75 0 29 -8
98 -19 153 -21 112 -16 132 34 119 22 -5 27 -12 27 -38 0 -17 7 -39 14 -49 12
-16 14 -16 20 -1 3 8 6 34 6 55 0 43 14 79 36 92 8 4 14 21 14 36 0 16 7 34
15 41 8 7 15 24 15 37 0 22 -2 24 -15 13 -8 -7 -15 -21 -15 -32 0 -12 -12 -24
-34 -33 -19 -8 -36 -20 -39 -27 -3 -10 -7 -10 -17 -1 -15 14 -15 125 0 153 13
24 13 60 0 60 -5 0 -10 -4 -10 -9 0 -12 -75 -99 -107 -124 -14 -11 -30 -16
-41 -12 -16 6 -16 7 1 19 9 7 17 18 17 24 0 6 13 26 28 44 16 18 39 59 52 91
15 37 27 56 36 53 24 -9 37 23 36 90 -1 53 4 76 25 116 30 57 35 156 8 171
-17 9 -20 48 -6 62 5 6 11 30 13 55 1 25 9 51 16 58 6 7 12 22 12 33 0 10 0
22 0 27 0 4 -5 7 -12 7 -28 0 -4 85 39 135 26 30 32 14 16 -43 -8 -28 -15 -61
-14 -72 0 -11 3 -96 6 -190 9 -264 7 -248 35 -262 18 -9 20 -13 8 -13 -12 0
-18 -8 -18 -25 0 -32 27 -33 39 -2 5 13 17 29 26 37 25 20 46 2 62 -53 16 -54
29 -54 35 0 6 49 -9 103 -27 103 -8 0 -15 -4 -15 -10 0 -11 -32 -1 -42 14 -5
6 -5 23 -2 38 3 14 0 29 -6 33 -19 12 -28 49 -18 68 5 11 11 32 13 48 12 94
51 257 65 276 23 29 30 20 30 -38 0 -51 16 -71 51 -62 12 3 19 0 20 -8 6 -143
10 -171 24 -158 2 3 7 23 10 45 9 57 16 78 32 89 8 6 21 42 30 80 8 39 19 75
24 80 4 6 13 51 19 99 6 49 18 102 26 117 8 16 17 49 21 74 3 24 16 59 29 77
13 17 24 40 24 50 0 10 9 41 20 70 11 29 20 63 20 76 0 13 5 33 12 45 6 12 12
50 13 85 2 49 7 68 24 86 22 24 28 46 11 46 -5 0 -10 -4 -10 -10 0 -5 -7 -10
-16 -10 -9 0 -14 7 -12 18 2 9 12 17 23 17 16 0 23 13 37 65 9 36 18 90 18
120 1 53 6 96 30 263 12 84 28 114 98 184 39 39 82 109 82 132 0 6 22 50 49
98 28 49 57 101 65 116 13 24 19 26 35 17 27 -14 45 14 66 100 21 87 48 170
55 170 3 0 11 -5 17 -11 14 -14 43 11 66 56 23 46 55 75 81 75 21 0 36 16 36
40 0 5 -14 2 -31 -7 -37 -18 -47 -11 -29 22 8 16 22 25 36 25 16 0 25 7 28 23
3 12 10 45 16 72 6 28 11 60 11 72 0 12 4 25 9 28 6 3 10 19 10 35 0 21 10 39
34 61 34 30 39 59 10 59 -8 0 -14 4 -14 10 0 16 23 60 31 60 16 0 37 55 47
124 6 38 16 74 22 80 5 5 10 20 10 32 0 12 9 33 20 47 11 14 20 34 20 45 0 11
7 32 15 48 17 34 15 37 -25 36 -24 -1 -30 3 -30 21 0 41 12 65 33 71 17 5 19
8 8 15 -8 5 -12 19 -9 35 3 14 0 27 -6 30 -7 3 -7 5 1 5 8 1 9 10 2 33 -20 73
-9 99 35 82 19 -7 22 -65 5 -96 -9 -18 -8 -19 10 -13 12 4 21 2 21 -4 0 -6 4
-11 10 -11 20 0 34 48 35 121 1 42 7 91 15 108 7 17 10 34 6 38 -9 10 -18 -3
-25 -38 -9 -43 -37 -61 -56 -35 -15 20 -7 56 20 82 22 22 20 74 -3 74 -21 0
-42 18 -42 36 0 7 13 17 28 22 28 10 29 12 35 103 7 106 0 124 -39 107 -33
-15 -38 -6 -17 31 12 21 24 30 38 28 32 -4 44 -16 38 -37 -4 -16 1 -23 25 -31
16 -6 32 -18 34 -27 2 -9 3 -72 3 -139 0 -68 2 -123 5 -123 25 0 42 184 19
207 -5 5 -12 45 -15 87 -5 71 -4 78 18 96 22 18 23 19 4 33 -24 18 -26 75 -3
92 19 14 23 75 7 105 -5 10 -12 70 -15 133 -5 105 -3 115 15 132 16 14 17 21
8 32 -8 10 -8 17 -1 21 16 11 23 52 8 52 -7 0 -18 -20 -25 -45 -15 -52 -35
-59 -44 -14 -7 37 4 60 38 79 30 15 36 45 9 36 -10 -3 -25 -1 -33 4 -13 9 -13
11 -1 19 8 5 20 7 28 4 17 -7 17 -4 -7 42 -11 22 -20 53 -20 70 -1 16 -7 41
-15 55 -8 14 -15 39 -15 55 0 17 -4 35 -8 42 -4 7 -5 40 -2 75 5 50 3 65 -10
78 -12 12 -15 28 -12 49 4 31 3 32 -16 20 -24 -15 -46 -2 -55 31 -4 15 0 20
16 20 11 0 38 12 59 26 31 22 40 24 53 14 8 -7 15 -19 15 -26 0 -8 6 -14 14
-14 8 0 16 -16 20 -39 4 -28 12 -40 27 -44 12 -3 22 0 25 8 8 20 -23 85 -40
85 -10 0 -16 9 -16 23 -1 42 -60 117 -123 156 -39 24 -61 60 -51 84 3 9 -6 19
-25 27 -31 12 -48 41 -35 61 14 23 5 93 -16 122 l-22 29 31 38 c33 42 29 53
-18 54 -28 1 -51 35 -51 77 0 15 -12 37 -30 54 -16 16 -30 34 -30 40 0 6 -18
30 -41 54 -31 32 -40 48 -36 67 4 21 0 26 -24 31 -16 3 -31 14 -34 24 -4 11
-17 27 -30 35 -13 9 -25 25 -27 37 -2 12 -9 22 -17 22 -8 0 -27 16 -43 36 -29
36 -30 37 -12 64 15 23 15 28 3 36 -8 5 -20 9 -26 9 -7 0 -13 9 -13 20 0 11 7
20 15 20 18 0 19 12 3 28 -19 19 -30 14 -23 -9 7 -20 4 -21 -21 -15 -45 11
-104 54 -104 76 0 10 10 26 21 34 13 9 19 21 16 31 -10 25 -36 29 -58 9 -15
-13 -22 -15 -31 -6 -9 9 -8 12 6 12 15 0 17 5 11 28 -3 15 -12 29 -18 31 -15
6 -60 51 -55 57 6 6 58 -19 58 -28 0 -5 5 -8 11 -8 16 0 39 -26 39 -44 0 -10
9 -16 23 -16 12 0 32 -3 45 -6 16 -5 22 -2 22 10 0 9 -8 16 -19 16 -11 0 -32
12 -48 28 -16 15 -45 40 -66 57 -20 16 -37 37 -37 45 0 27 -21 39 -58 33 -24
-4 -38 -2 -46 9 -6 8 -19 17 -29 21 -12 5 -16 13 -13 25 5 14 -4 23 -39 40
-35 17 -45 27 -45 46 0 14 -9 31 -21 40 -15 10 -19 20 -14 35 6 19 3 20 -23
15 -32 -6 -54 12 -32 26 22 14 4 36 -52 65 -29 15 -64 36 -78 47 -92 70 -115
87 -118 83 -2 -2 3 -18 12 -36 25 -50 21 -62 -16 -56 -92 16 -99 19 -93 37 7
23 -22 52 -49 48 -12 -1 -38 5 -57 15 -40 18 -97 85 -83 96 15 11 15 31 -1 31
-11 0 -15 -11 -15 -36 0 -33 -2 -36 -22 -30 -13 3 -26 6 -29 6 -14 0 -18 32
-6 50 21 35 5 51 -106 101 -28 12 -45 25 -40 30 5 5 27 0 51 -11 23 -11 57
-23 75 -27 17 -3 42 -13 54 -21 22 -14 73 -10 73 6 0 4 -16 24 -35 45 -37 40
-42 56 -24 74 21 21 0 34 -31 18 -34 -17 -68 -19 -104 -5 -33 12 -34 30 -2 30
13 0 40 7 61 16 21 8 44 13 51 10 8 -3 14 1 14 9 0 7 -13 16 -29 20 -16 3 -37
17 -45 31 -9 13 -25 24 -35 24 -10 0 -34 13 -52 30 -20 17 -45 30 -61 30 -27
0 -62 35 -52 52 3 4 -3 11 -13 15 -37 13 -63 45 -57 70 5 17 2 23 -10 23 -9 0
-26 11 -38 25 -14 17 -32 25 -53 25 -21 0 -40 9 -56 26 -22 23 -22 26 -7 35
27 15 3 46 -32 41 -22 -3 -29 1 -39 27 -7 17 -19 36 -27 42 -20 16 -17 29 6
29 30 0 24 14 -19 44 -28 20 -45 25 -64 21 -19 -5 -37 1 -71 25 -25 17 -46 37
-46 44 0 8 -16 16 -40 19 -22 3 -46 12 -54 20 -8 8 -35 27 -59 42 -24 15 -51
41 -60 56 -9 17 -25 29 -36 29 -11 0 -22 9 -26 21 -4 11 -18 24 -31 29 -13 5
-24 14 -24 20 0 15 89 3 117 -15 25 -16 53 -20 53 -7 0 16 -36 42 -58 42 -12
0 -38 19 -61 43 -45 48 -104 83 -156 93 -20 3 -40 15 -46 25 -5 11 -17 19 -27
19 -9 0 -42 16 -72 36 -30 19 -74 40 -97 45 -25 7 -48 21 -58 35 -8 13 -21 24
-27 24 -6 0 -33 18 -59 40 -52 44 -76 56 -131 65 -21 3 -52 19 -69 34 -20 19
-48 32 -75 36 -55 8 -75 35 -42 57 31 21 15 37 -30 31 -31 -4 -52 2 -118 37
-43 23 -92 51 -107 62 -20 15 -37 19 -59 14 -22 -4 -64 4 -132 24 -56 17 -117
36 -136 41 -39 12 -95 35 -124 50 -16 9 -54 18 -143 33 -12 2 -28 8 -35 13 -7
4 -29 13 -48 18 -22 7 -35 17 -35 27 0 26 -8 29 -95 30 -70 1 -83 4 -87 18 -4
17 -42 40 -64 40 -6 0 -17 -7 -26 -16 -22 -22 -57 -14 -61 14 -7 47 -108 64
-120 20 -3 -12 -10 -17 -19 -14 -8 3 -23 6 -34 6 -11 0 -31 11 -44 24 -26 26
-75 46 -112 46 -14 0 -40 7 -59 16 -31 15 -35 15 -49 0 -18 -18 -51 -21 -60
-6 -3 6 -1 10 6 10 35 0 -14 18 -80 30 -56 11 -80 11 -104 2 -41 -15 -53 -5
-27 23 29 31 21 41 -40 49 -27 4 -50 11 -50 15 0 5 -15 11 -32 14 -65 10 -123
28 -140 43 -11 11 -44 17 -107 19 -55 3 -102 10 -120 20 -40 20 -42 20 -87
-15 -27 -22 -47 -30 -68 -28 -42 4 -35 22 11 28 29 4 41 12 51 33 7 15 18 27
23 27 6 0 7 5 4 10 -3 6 -36 10 -73 10 -136 0 -417 22 -442 35 -30 15 -121 10
-167 -11 -35 -16 -79 -19 -87 -6 -3 5 -31 7 -62 4 -55 -5 -57 -4 -51 17 5 20
2 22 -31 20 -20 -1 -44 1 -53 5 -8 4 -28 2 -43 -4 -35 -13 -76 -13 -76 0 0 13
-37 13 -45 -1 -5 -7 -15 -5 -31 5 -13 9 -34 16 -47 16 -13 0 -32 6 -42 14 -19
14 -19 15 -1 35 26 28 12 39 -23 18 -24 -14 -31 -14 -55 -1 -16 7 -36 14 -46
14 -29 0 -33 30 -9 57 13 12 28 23 35 23 7 0 16 5 20 11 5 9 -8 10 -47 5 -103
-13 -134 -14 -189 -3 -30 5 -62 17 -71 24 -13 11 -67 15 -235 18 -125 3 -223
0 -229 -5 -6 -5 -49 -12 -96 -16 -46 -4 -99 -13 -118 -20 -33 -14 -51 -11 -51
7 0 5 9 9 20 9 11 0 23 7 26 15 3 8 14 17 25 20 11 4 17 11 14 16 -4 5 7 9 24
9 31 0 49 14 31 25 -19 12 -10 23 26 29 22 5 41 3 50 -5 11 -9 22 -8 49 5 41
20 52 35 34 47 -14 9 -26 8 -104 -12 -22 -6 -64 -14 -93 -18 -48 -7 -53 -6
-49 11 8 28 -9 30 -40 4 -22 -18 -33 -21 -51 -15 -28 11 -67 3 -83 -17 -17
-21 -118 -64 -149 -64 -15 0 -47 -7 -70 -15 -82 -29 -98 -17 -55 39 14 18 22
36 18 39 -9 9 37 58 48 51 5 -3 33 13 63 36 30 22 59 40 64 40 15 0 34 28 24
34 -6 3 -12 -1 -16 -9 -8 -22 -36 -18 -36 5 0 11 -4 20 -10 20 -19 0 -10 25
21 58 16 17 33 32 38 32 4 0 17 17 29 39 22 38 20 60 -4 40 -27 -22 -35 2 -14
38 24 41 23 46 -5 30z m6985 -10688 c0 -17 -9 -48 -19 -70 -11 -21 -22 -58
-26 -82 -4 -23 -11 -50 -17 -59 -7 -14 -5 -18 11 -18 11 0 23 5 26 10 10 17
35 11 35 -8 0 -27 -29 -62 -52 -62 -11 0 -29 -11 -40 -25 -11 -14 -24 -25 -29
-25 -15 0 -10 36 6 50 17 14 20 41 5 56 -12 12 6 64 21 64 11 0 17 23 29 109
10 74 24 106 41 95 5 -3 9 -19 9 -35z m-8950 -190 c0 -8 7 -24 15 -35 21 -27
19 -40 -12 -82 -81 -108 -121 -133 -143 -91 -9 16 -8 25 6 40 12 14 17 39 19
99 1 78 2 81 36 110 l34 29 22 -27 c13 -15 23 -34 23 -43z m305 -62 c0 -8 3
-19 7 -22 4 -4 4 -13 1 -21 -3 -9 2 -14 17 -14 20 0 22 -4 17 -30 -4 -16 -2
-32 3 -35 18 -11 10 -34 -12 -37 -19 -2 -22 -8 -20 -34 2 -25 -5 -40 -33 -70
-29 -30 -38 -35 -45 -24 -6 9 -5 17 2 21 7 4 7 9 -1 14 -8 4 -3 14 14 27 25
20 26 33 2 33 -22 0 -20 66 2 96 24 33 27 49 7 49 -9 0 -12 7 -9 20 3 11 11
20 19 20 8 0 11 6 7 16 -4 12 -2 15 8 12 8 -3 14 -12 14 -21z m1695 -6079 c16
-20 22 -21 39 -10 31 18 43 15 35 -10 -10 -36 -35 -59 -56 -52 -12 3 -32 -5
-57 -25 -39 -31 -74 -40 -86 -20 -4 5 -12 8 -18 6 -14 -4 -38 68 -30 89 9 24
56 43 106 44 39 0 53 -5 67 -22z m820 -68 c4 -15 12 -23 21 -21 8 2 31 6 52 9
23 3 41 11 48 23 17 33 29 21 29 -32 0 -53 13 -62 34 -24 6 10 19 28 29 39 18
21 19 20 15 -42 -2 -52 0 -62 13 -62 18 0 29 28 29 76 0 39 27 66 36 38 3 -11
10 -27 15 -36 5 -10 9 -29 9 -44 0 -20 4 -24 19 -19 16 5 19 -2 25 -51 5 -43
3 -59 -8 -68 -8 -6 -16 -22 -18 -36 -4 -33 -39 -38 -77 -11 -16 12 -34 21 -41
21 -16 0 -40 26 -40 43 0 8 -9 13 -22 13 -20 -1 -23 4 -22 37 1 20 0 37 -2 37
-2 0 -14 -11 -28 -25 -27 -27 -66 -34 -66 -12 0 7 -6 22 -14 32 -13 19 -15 19
-33 3 -22 -20 -43 -8 -43 25 0 16 -5 18 -30 14 -43 -9 -44 5 -4 57 39 51 64
57 74 16z m-108 -252 c14 -11 15 -18 5 -48 -8 -21 -20 -36 -32 -39 -11 -2 -22
-7 -25 -11 -3 -5 -33 -6 -68 -3 -69 6 -78 20 -40 60 27 29 58 30 58 2 0 -11 5
-17 10 -14 6 3 10 15 10 25 0 34 52 51 82 28z m1319 -2590 c10 -13 18 -28 19
-34 0 -18 64 -71 93 -78 15 -3 27 -13 27 -20 0 -8 9 -16 20 -19 31 -8 25 28
-10 66 -29 31 -37 47 -23 47 11 0 121 -79 148 -106 30 -30 65 -32 65 -5 0 11
5 23 10 26 6 3 10 13 10 22 0 11 -6 14 -27 9 -17 -5 -29 -3 -34 6 -16 25 -9
38 19 38 36 -1 85 -41 76 -63 -3 -9 -10 -17 -15 -17 -5 0 -9 -4 -9 -10 0 -5 3
-9 8 -9 21 4 31 -5 48 -42 l18 -42 -29 -23 c-17 -13 -35 -24 -41 -24 -8 0 -10
-12 -7 -34 4 -30 1 -35 -35 -54 -22 -12 -49 -18 -61 -15 -12 3 -21 1 -21 -6 0
-26 -31 -8 -69 40 -23 29 -41 55 -41 60 0 4 -16 11 -35 15 -40 7 -65 38 -39
48 22 8 15 88 -8 92 -9 1 -33 14 -53 29 -28 22 -35 34 -34 59 1 17 -2 39 -6
49 -10 25 13 22 36 -5z"/>
<path d="M11663 30780 c-23 -21 -64 -78 -93 -126 -28 -48 -68 -108 -88 -133
-52 -63 -72 -97 -72 -120 0 -11 -11 -46 -25 -77 -24 -54 -26 -79 -6 -58 5 5
33 54 62 109 28 55 71 123 94 150 23 28 66 97 96 155 30 57 60 111 67 118 11
13 15 22 9 22 -2 0 -22 -18 -44 -40z"/>
<path d="M17038 23291 c-26 -15 -62 -43 -81 -62 -36 -37 -107 -99 -113 -99 -2
0 -4 14 -4 30 0 17 -4 30 -10 30 -5 0 -10 -5 -10 -11 0 -6 -12 -24 -27 -39
-40 -40 -76 -90 -70 -96 3 -3 14 -1 25 5 42 23 43 8 2 -37 -16 -18 -30 -39
-30 -45 0 -7 -11 -34 -25 -60 -18 -33 -27 -67 -29 -110 -3 -56 -11 -89 -37
-139 -12 -23 -11 -55 1 -63 6 -3 10 0 10 9 0 8 25 40 55 71 55 57 77 63 31 8
-28 -33 -44 -83 -27 -83 6 0 17 12 25 28 8 15 23 36 35 46 12 11 21 24 21 30
0 7 15 27 33 46 18 19 43 55 56 80 28 54 49 80 68 80 19 0 18 -3 -28 -96 -22
-46 -46 -84 -54 -84 -8 0 -16 -16 -20 -39 -3 -22 -15 -47 -26 -57 -10 -9 -19
-23 -19 -31 0 -7 -16 -36 -36 -63 -20 -28 -34 -54 -30 -57 7 -7 43 34 56 65 6
13 16 22 22 21 26 -3 38 1 38 14 0 11 25 45 64 90 9 9 21 17 27 17 19 0 0 -51
-32 -87 -37 -43 -39 -73 -3 -73 18 0 28 7 35 28 11 33 60 65 84 56 16 -6 15
-8 -3 -18 -12 -6 -41 -30 -66 -54 -24 -23 -49 -42 -54 -42 -11 0 -24 -41 -16
-50 3 -3 14 5 24 18 10 12 25 22 33 22 8 0 34 18 58 39 40 38 129 78 129 60 0
-17 47 -9 65 11 14 15 26 19 45 15 18 -4 35 1 52 15 15 12 41 20 62 20 40 0
47 -13 16 -30 -11 -6 -20 -8 -20 -4 0 3 -11 -1 -25 -10 -13 -9 -37 -16 -53
-16 -28 0 -92 -53 -80 -65 3 -3 25 2 49 11 31 13 44 14 47 6 2 -7 13 -12 25
-13 19 0 17 -3 -10 -16 -17 -9 -34 -24 -36 -34 -3 -11 -3 -19 -1 -19 5 0 70
29 112 49 24 12 35 13 40 4 5 -8 17 -8 47 3 22 7 49 14 60 14 11 0 31 9 45 20
34 27 59 27 35 0 -10 -11 -26 -20 -37 -20 -11 0 -18 -7 -18 -19 0 -10 -9 -21
-20 -24 -20 -5 -29 -27 -11 -27 5 0 29 12 55 26 49 27 176 48 162 26 -3 -6
-20 -13 -36 -17 -17 -4 -30 -10 -30 -15 0 -4 -10 -10 -22 -13 -37 -10 -11 -21
42 -18 31 1 50 -2 50 -8 0 -6 -7 -11 -16 -11 -23 0 -11 -24 14 -28 13 -2 26 5
34 17 13 21 48 29 48 11 0 -19 28 -10 33 10 4 15 13 20 34 19 23 -1 24 -2 6
-6 -13 -2 -23 -9 -23 -14 0 -16 67 -10 102 10 36 20 152 29 162 12 4 -6 20 -6
42 1 36 9 49 6 49 -14 0 -16 37 -26 63 -17 27 10 29 39 2 39 -11 0 -20 7 -20
15 0 11 12 15 44 15 58 0 74 7 91 40 13 24 19 27 74 27 34 1 61 -3 61 -7 0
-13 -73 -53 -93 -52 -15 1 -16 -2 -7 -13 7 -8 15 -13 19 -11 3 2 33 11 66 21
33 9 76 24 95 33 23 10 59 15 105 14 68 -2 71 -3 107 -42 30 -34 38 -38 45
-25 8 14 14 14 60 -1 56 -18 86 -14 77 11 -4 10 -20 15 -48 15 -39 0 -66 13
-66 32 0 4 7 8 15 8 8 0 15 6 15 14 0 31 52 34 88 6 14 -12 29 -17 34 -12 10
10 108 -3 117 -15 3 -5 30 -15 60 -22 29 -7 62 -22 72 -32 11 -11 31 -19 46
-19 25 0 26 1 8 20 -10 11 -38 31 -61 45 -24 14 -44 28 -44 31 0 8 57 64 65
64 3 0 4 -12 3 -27 -2 -21 1 -27 12 -25 8 2 24 5 35 7 11 1 35 8 53 15 27 10
32 17 32 46 0 27 4 34 19 34 11 0 23 -4 26 -10 3 -5 25 -11 48 -11 37 -1 39
-2 13 -8 -32 -7 -27 -14 27 -41 23 -12 30 -12 36 -1 7 11 10 11 15 0 5 -11 7
-12 12 -1 5 10 10 10 25 -4 10 -9 25 -14 35 -10 11 4 37 -11 81 -49 36 -30 72
-55 82 -55 9 0 21 -4 27 -9 13 -13 67 -18 70 -6 3 9 -58 42 -109 59 -13 4 -16
12 -11 30 6 25 5 25 -91 42 -25 5 -30 10 -29 32 0 17 9 31 22 38 21 10 21 10
2 42 -11 18 -20 37 -20 42 0 15 32 11 54 -5 11 -8 37 -15 59 -15 30 0 44 -6
59 -25 24 -31 54 -35 38 -5 -6 11 -17 20 -24 20 -8 0 -19 7 -26 15 -15 18 -4
56 16 48 7 -3 14 0 14 6 0 6 -7 11 -15 11 -18 0 -20 16 -2 24 8 3 7 9 -7 20
-13 10 -24 12 -36 6 -11 -6 -21 -5 -28 2 -17 17 -15 32 8 58 29 34 9 48 -28
20 -17 -12 -35 -20 -40 -16 -19 12 -20 -22 -1 -40 34 -30 18 -74 -27 -74 -33
0 -82 32 -94 61 -6 14 -25 33 -41 43 -17 10 -37 33 -44 50 -16 38 -82 101
-116 111 -13 4 -32 14 -41 22 -11 10 -41 15 -85 16 -58 2 -73 6 -105 30 -21
16 -43 27 -50 25 -7 -3 7 -17 32 -33 25 -15 57 -43 73 -61 15 -18 37 -34 50
-36 14 -2 23 -11 25 -26 2 -13 10 -26 18 -29 23 -9 16 -23 -12 -23 -17 0 -36
12 -57 35 -17 19 -37 35 -44 35 -15 0 -46 16 -82 43 -25 18 -91 24 -91 7 0 -5
15 -10 33 -10 44 0 139 -86 130 -119 -3 -11 -8 -21 -12 -21 -12 0 -61 37 -75
55 -11 15 -18 16 -44 7 -28 -9 -35 -7 -68 19 -47 37 -103 53 -139 39 -22 -8
-31 -7 -45 5 -9 8 -24 15 -32 15 -9 0 -31 18 -50 40 -18 23 -44 48 -56 56 -21
14 -25 14 -41 0 -10 -9 -22 -16 -27 -16 -5 0 -8 -15 -8 -32 2 -47 -11 -59 -44
-44 -15 8 -47 22 -72 34 -25 11 -66 30 -93 42 -52 24 -127 38 -127 23 0 -15
53 -61 74 -65 27 -4 31 -25 6 -33 -13 -4 -31 0 -48 12 -24 16 -79 43 -88 43
-7 0 9 -35 24 -52 8 -10 10 -18 5 -18 -6 0 -16 6 -22 14 -6 7 -28 16 -49 20
-21 3 -59 20 -86 37 -41 27 -51 30 -72 20 -35 -16 -51 -14 -74 9 -11 11 -38
23 -60 26 -22 4 -45 13 -51 20 -16 19 -35 18 -43 -3 -5 -12 -9 -14 -18 -5 -18
18 -53 14 -73 -8 -19 -21 -50 -26 -60 -10 -3 6 -22 10 -41 10 -28 0 -34 4 -34
21 0 19 -4 20 -49 14 -31 -4 -51 -3 -56 4 -3 6 -21 11 -38 11 -20 0 -39 8 -50
20 -10 12 -29 20 -46 20 -16 0 -36 7 -45 15 -10 11 -32 15 -73 13 -32 -1 -62
0 -68 3 -5 2 -11 0 -13 -6 -1 -5 7 -11 18 -13 30 -5 20 -24 -15 -28 -16 -2
-39 -14 -52 -29 -13 -14 -31 -25 -39 -25 -10 0 -2 12 20 34 39 36 48 76 19 75
-10 0 -39 -12 -65 -28z m2348 -218 c15 -3 24 -15 28 -35 4 -18 11 -28 18 -25
13 5 71 -26 96 -50 24 -23 3 -34 -35 -18 -19 8 -37 15 -40 15 -2 0 14 -22 36
-48 48 -57 51 -66 14 -46 -16 7 -33 14 -40 14 -7 0 -21 21 -33 47 -11 26 -28
55 -38 64 -31 30 -50 56 -57 79 -6 20 -5 22 11 15 11 -4 29 -10 40 -12z"/>
<path d="M17865 22179 c-16 -4 -60 -7 -97 -8 -37 0 -70 -5 -73 -11 -3 -5 -28
-10 -54 -10 -26 0 -51 -4 -56 -9 -6 -4 -36 -13 -67 -19 -32 -6 -76 -20 -100
-32 -23 -11 -47 -20 -54 -20 -17 0 -128 -52 -132 -62 -2 -4 -12 -8 -23 -8 -10
0 -19 -4 -19 -10 0 -5 -7 -10 -16 -10 -8 0 -22 -7 -30 -15 -9 -8 -26 -15 -39
-15 -16 0 -25 -7 -29 -25 -4 -16 -13 -25 -25 -25 -11 0 -30 -13 -44 -30 -18
-20 -38 -32 -67 -36 -28 -5 -38 -10 -31 -17 16 -16 -6 -47 -35 -47 -18 0 -25
-4 -21 -14 4 -9 -4 -16 -23 -19 -19 -4 -30 -14 -34 -32 -4 -16 -13 -25 -26
-25 -11 0 -20 -5 -20 -10 0 -6 -16 -26 -36 -46 -35 -33 -36 -36 -18 -48 10 -8
24 -12 31 -9 19 7 16 -12 -4 -28 -11 -10 -14 -10 -9 -1 4 7 2 12 -6 12 -22 0
-57 -29 -73 -61 -11 -20 -23 -29 -41 -29 -14 0 -22 -4 -19 -10 3 -5 1 -10 -6
-10 -7 0 -4 -7 7 -15 19 -15 19 -15 -1 -31 -18 -14 -20 -14 -23 0 -4 20 -32
21 -32 1 0 -8 4 -15 10 -15 9 0 2 -30 -10 -40 -27 -23 -86 -110 -119 -177 -22
-45 -45 -84 -51 -88 -14 -9 -13 -68 2 -83 7 -7 22 -12 35 -12 29 0 133 49 133
63 0 8 3 8 11 0 7 -7 7 -27 0 -69 -9 -47 -19 -67 -49 -97 -84 -85 -78 -74 -57
-97 11 -12 20 -28 21 -36 3 -21 25 -45 34 -39 16 10 22 -17 10 -40 -7 -13 -10
-31 -7 -39 8 -20 41 -21 57 -1 11 13 15 12 31 -6 11 -12 19 -26 19 -30 0 -4 9
-10 19 -14 11 -3 25 -21 31 -40 6 -19 18 -35 25 -35 9 0 12 -6 9 -15 -4 -10 0
-15 11 -15 9 0 28 -9 42 -20 l26 -20 -24 2 c-18 2 -24 -2 -24 -17 0 -15 7 -20
30 -20 24 -1 31 -5 33 -25 6 -40 22 -53 59 -47 28 5 35 2 42 -16 15 -38 77
-90 100 -84 15 3 25 -1 32 -15 8 -15 18 -19 40 -16 16 3 29 1 29 -4 0 -4 -4
-8 -9 -8 -5 0 -7 -9 -4 -20 4 -15 11 -18 30 -14 22 6 24 4 18 -15 -5 -17 -2
-21 14 -21 12 0 21 5 21 10 0 19 32 10 37 -10 3 -12 13 -20 27 -19 11 0 16 3
9 5 -13 6 -6 34 9 34 5 0 21 14 35 30 14 17 27 29 30 27 9 -9 -10 -57 -22 -57
-14 0 -27 -25 -18 -34 10 -10 83 -7 83 4 0 6 -4 10 -8 10 -5 0 -9 7 -9 16 0
13 8 15 39 11 32 -4 38 -2 34 9 -6 15 73 104 92 104 5 0 8 8 5 18 -6 25 22 48
41 33 7 -6 36 -10 65 -9 49 2 51 4 51 30 0 15 5 28 10 28 6 0 10 7 10 15 0 13
38 41 45 33 1 -2 6 -13 9 -25 6 -19 3 -23 -13 -23 -12 0 -21 -7 -21 -15 0 -8
7 -15 15 -15 8 0 15 5 15 10 0 6 9 10 21 10 11 0 17 -4 14 -10 -3 -6 4 -10 16
-10 13 0 32 -9 44 -20 12 -11 42 -23 68 -26 44 -6 49 -5 79 27 64 67 70 70
110 56 19 -7 42 -18 50 -24 11 -10 14 -7 16 15 3 40 17 48 48 27 27 -17 28
-17 39 0 5 10 23 31 38 46 27 25 35 27 124 27 88 1 127 11 110 28 -4 4 -44 9
-89 11 -46 3 -85 7 -88 9 -11 12 30 24 86 24 72 0 95 14 175 109 81 95 128
192 129 262 0 31 7 74 16 95 11 26 14 53 10 84 -5 38 -3 47 14 58 11 7 20 22
20 34 0 21 2 20 33 -8 36 -34 84 -57 98 -49 5 4 9 17 9 31 0 32 10 30 54 -11
21 -19 42 -35 47 -35 5 0 15 -11 21 -25 6 -14 18 -25 26 -25 15 0 82 -68 82
-82 0 -5 6 -8 14 -8 7 0 26 -16 40 -35 15 -19 32 -35 39 -35 7 0 18 -9 24 -20
7 -11 27 -27 45 -36 18 -9 44 -26 58 -39 14 -13 40 -37 58 -54 19 -17 38 -31
43 -31 5 0 9 -5 9 -11 0 -5 4 -8 9 -4 5 3 29 -15 52 -40 47 -50 59 -55 59 -25
0 11 7 23 15 26 24 10 17 35 -23 83 -61 74 -109 153 -116 193 -5 26 -17 45
-41 64 -19 14 -43 41 -54 60 -11 19 -27 34 -36 34 -17 0 -20 2 -81 54 -23 20
-48 36 -57 36 -8 0 -29 11 -45 25 -17 14 -36 25 -43 25 -8 0 -30 16 -49 36
-28 28 -40 33 -62 29 -24 -6 -72 17 -98 46 -14 15 -122 69 -140 69 -11 0 -20
4 -20 9 0 5 -15 12 -34 15 -21 4 -45 19 -60 37 -14 17 -30 27 -36 24 -6 -3
-24 1 -42 9 -17 9 -41 16 -54 16 -12 0 -30 7 -39 16 -14 15 -14 17 2 30 10 7
25 14 33 14 8 0 10 3 5 9 -9 8 -63 18 -130 24 -29 2 -35 7 -35 26 0 5 19 14
43 20 23 6 47 14 52 18 18 14 38 61 31 72 -4 6 -2 11 3 11 19 0 12 17 -9 23
-12 3 -20 14 -20 26 0 15 -10 23 -40 31 -22 6 -44 20 -50 31 -8 13 -21 20 -43
20 -64 0 -138 11 -135 21 2 5 28 12 58 14 30 2 64 6 75 8 11 2 35 4 53 5 17 0
32 4 32 9 0 16 -78 50 -131 56 -47 6 -56 10 -52 24 5 20 79 44 131 43 29 -1
32 1 22 18 -8 16 -25 20 -97 26 -49 3 -110 10 -138 14 -53 8 -182 7 -190 -1
-9 -8 -65 4 -65 14 0 6 12 8 26 5 15 -3 45 3 68 14 23 10 58 19 79 19 20 0 37
3 37 8 0 9 -175 11 -215 1z m-222 -1005 c-6 -157 -5 -323 3 -335 14 -23 14
-81 0 -101 -12 -16 -14 -17 -19 -3 -4 10 -20 15 -49 15 -24 0 -52 7 -62 15
-11 8 -28 15 -38 15 -12 0 -18 7 -18 23 0 16 -9 28 -25 35 -31 14 -47 54 -39
97 5 31 3 34 -29 44 -19 7 -47 23 -62 37 -26 24 -27 24 -32 4 -6 -23 -23 -27
-23 -5 0 8 5 15 11 15 16 0 5 25 -12 26 -31 2 -37 5 -42 18 -4 9 0 12 11 10
10 -3 41 17 77 50 67 59 117 81 235 100 99 17 116 8 113 -60z m851 -63 c-1
-35 5 -47 37 -81 21 -22 43 -40 49 -40 15 0 12 -26 -4 -39 -7 -6 -20 -9 -29
-5 -8 3 -25 1 -36 -6 -32 -17 -30 -93 4 -124 32 -29 32 -51 0 -72 -38 -25
-131 -9 -158 28 -18 24 -18 31 -7 77 6 28 21 62 31 75 13 16 19 40 19 73 0 26
3 72 6 100 6 48 9 52 29 47 13 -3 26 -1 30 6 14 23 30 2 29 -39z"/>
<path d="M21224 18066 c-3 -8 -6 -21 -8 -28 -1 -7 -12 -24 -24 -36 -25 -25
-28 -42 -10 -60 9 -9 9 -20 -1 -47 -7 -19 -10 -39 -6 -45 3 -5 1 -19 -5 -31
-7 -13 -8 -25 -3 -30 13 -13 45 1 39 17 -3 7 0 16 6 20 7 4 7 9 -1 14 -7 4 5
12 29 19 23 7 40 18 40 26 0 8 6 15 13 15 8 0 7 4 -3 10 -8 5 -10 10 -4 10 18
0 9 74 -14 110 -12 19 -22 38 -22 43 0 13 -20 7 -26 -7z"/>
<path d="M15405 17359 c-63 -9 -83 -22 -86 -54 -5 -48 2 -61 44 -81 164 -82
196 -87 332 -57 75 16 77 16 130 -6 66 -27 89 -25 93 10 4 35 -35 80 -110 129
-92 60 -244 82 -403 59z"/>
<path d="M19082 12493 c-6 -16 -13 -50 -17 -78 -3 -27 -15 -85 -26 -129 -10
-43 -19 -88 -19 -100 0 -11 -9 -45 -20 -74 -11 -29 -20 -65 -20 -81 0 -17 -5
-42 -10 -56 -6 -15 -17 -64 -25 -108 -21 -115 -42 -213 -59 -272 -8 -27 -26
-104 -41 -170 -37 -162 -140 -475 -157 -475 -4 0 -8 -8 -8 -17 0 -10 -9 -33
-20 -51 -11 -18 -20 -37 -20 -43 0 -6 -12 -30 -27 -53 -16 -22 -35 -54 -43
-71 -8 -16 -19 -33 -25 -37 -5 -4 -6 -8 -2 -8 4 0 -6 -26 -23 -57 -16 -32 -30
-62 -30 -66 0 -5 -20 -37 -45 -71 -25 -35 -45 -68 -45 -73 0 -6 -8 -17 -18
-26 -10 -9 -28 -37 -41 -62 -12 -24 -26 -47 -32 -50 -5 -4 -19 -25 -30 -48
-12 -23 -32 -53 -44 -67 -44 -47 -105 -145 -93 -149 13 -4 145 134 185 194 15
22 35 49 45 60 39 44 108 122 131 147 14 15 39 53 58 85 40 71 75 118 154 204
33 37 75 93 94 125 19 33 58 91 86 129 82 113 100 149 131 264 8 30 19 60 24
65 4 6 17 45 28 86 12 41 33 109 47 150 15 41 33 100 41 130 8 30 24 75 36
100 32 69 65 165 94 270 22 80 25 111 22 196 -3 93 -6 104 -35 150 -39 59
-154 164 -181 164 -5 0 -14 -12 -20 -27z"/>
<path d="M15010 8545 c10 -12 9 -15 -8 -15 -11 0 -23 6 -26 13 -5 10 -7 10
-12 0 -3 -7 -10 -13 -15 -13 -16 0 -48 -38 -55 -65 -5 -19 -2 -25 11 -25 9 0
13 -4 10 -10 -9 -14 7 -12 29 5 10 7 15 18 12 23 -3 6 5 5 18 -1 19 -9 22 -15
15 -29 -8 -15 -5 -18 17 -18 19 0 25 4 20 15 -4 11 0 15 12 13 9 -2 20 -7 23
-11 3 -4 18 -1 33 6 25 14 25 15 6 20 -11 3 -19 11 -18 19 2 9 -5 12 -22 10
l-25 -4 24 21 c26 23 17 27 -25 11 -19 -8 -30 -8 -38 0 -7 7 -5 10 8 10 15 0
46 22 46 32 0 2 -12 5 -26 6 -22 2 -25 0 -14 -13z"/>
<path d="M15310 8447 c-1 -20 -2 -21 -14 -4 -16 21 -32 22 -40 2 -3 -8 0 -15
6 -15 6 0 3 -9 -7 -20 -18 -20 -17 -20 8 -20 15 0 27 5 27 12 0 6 2 9 5 6 9
-8 -6 -38 -16 -32 -5 3 -9 -2 -9 -11 0 -10 5 -15 14 -12 9 4 17 -8 25 -34 11
-38 41 -55 41 -24 0 8 6 15 14 15 7 0 28 3 46 7 27 5 32 3 25 -8 -6 -11 -5
-12 6 -1 7 6 29 13 49 13 19 1 28 3 19 6 -16 4 -16 7 -1 44 8 21 19 39 23 39
4 0 -3 12 -17 27 -22 24 -28 26 -53 17 -15 -6 -37 -7 -49 -3 -12 5 -28 6 -35
3 -8 -3 -26 0 -40 5 -24 9 -27 8 -27 -12z"/>
</g>
</svg>
